<svg xmlns="http://www.w3.org/2000/svg" viewBox="0 0 371.08 280.67"><defs><style>.cls-2{fill:#843594}.cls-3,.cls-5{fill:#343a40}.cls-5{fill-opacity:.7}</style></defs><g id="Layer_2" data-name="Layer 2"><g id="Layer_1-2" data-name="Layer 1"><path style="fill:#fff" d="M0 0h371.08v280.67H0z"/><path class="cls-2" d="M30.62 123.77v2.58a9.31 9.31 0 0 0 0 1.18l.06 1.2V140.24a5.32 5.32 0 0 1-.05.92 3.8 3.8 0 0 1-.33 1c-.19.39-.43.86-.73 1.4s-.65 1.17-1.05 1.91l-1.27 2.27c-.44.77-.85 1.5-1.24 2.17s-.73 1.26-1 1.78a12.46 12.46 0 0 0-.72 1.36 4.39 4.39 0 0 0-.33 1 6.11 6.11 0 0 0-.09.86v.92a3.89 3.89 0 0 1-.08 1.09c-.08.41-.17.81-.25 1.2a7.71 7.71 0 0 1-.32 1l-.44 1.14c-.17.44-.38 1.06-.66 1.84s-.48 1.49-.65 2.09-.28 1.15-.36 1.62-.12.9-.15 1.28 0 .74-.06 1.08 0 .69 0 1v1.21c0 .46 0 1-.07 1.7s-.09 1.41-.16 2.22-.13 1.65-.18 2.49-.1 1.7-.12 2.57 0 1.75-.05 2.66 0 1.82 0 2.75v32.48c0 .78 0 1.67-.07 2.65s-.11 2-.18 3.11-.16 2.13-.24 3.12-.18 1.89-.27 2.66-.18 1.43-.26 2-.16 1.09-.24 1.58a7.46 7.46 0 0 0-.12 1.09c0 .24 0 .6-.1 1.09a8.75 8.75 0 0 1-.24 1.27c-.1.36-.21.74-.3 1.14s-.2.82-.3 1.28-.21.93-.34 1.4-.26.94-.4 1.38-.29.85-.45 1.24-.29.76-.41 1.1-.21.68-.3 1-.21.65-.34 1-.24.69-.35 1.07a9 9 0 0 1-.27.88c-.08.22-.18.48-.31.8l-.46 1.11a9.16 9.16 0 0 1-.52 1.12l-.52.9-.45.8c-.13.25-.28.5-.44.76l-.45.72c-.14.23-.26.44-.37.64l-.33.58a4 4 0 0 1-.4.58l-.55.69c-.21.27-.42.51-.61.72a4.65 4.65 0 0 1-.62.57 2.23 2.23 0 0 0-.53.58 3.89 3.89 0 0 0-.34.63 3.73 3.73 0 0 1-.35.6l-.51.69c-.19.26-.44.64-.74 1.13s-.6 1-.89 1.55-.58 1.08-.86 1.59-.52 1-.73 1.45a6.06 6.06 0 0 0-.43 1.1 5.58 5.58 0 0 0-.13.9 6.85 6.85 0 0 0 0 .8c0 .22 0 .5.07.83s0 .72 0 1.13v1.8a5.55 5.55 0 0 0 .06.82 4.82 4.82 0 0 0 .2.79c.09.27.2.56.33.86s.26.6.4.89a2.69 2.69 0 0 0 .43.66 4 4 0 0 0 .59.49 1.19 1.19 0 0 0 .74.26h2.17a1.57 1.57 0 0 0 .67-.13l.85-.35a4.27 4.27 0 0 1 1-.29A6.69 6.69 0 0 1 12 276h3.33a3.35 3.35 0 0 0 1-.14l.77-.29a8.23 8.23 0 0 1 .87-.31 8.8 8.8 0 0 0 1-.36l.91-.39a5.65 5.65 0 0 1 .85-.26l.94-.25a7.65 7.65 0 0 1 .94-.21c.25 0 .57-.1 1-.2l.9-.23.8-.26a4.74 4.74 0 0 1 1-.26 1.73 1.73 0 0 0 .78-.27c.18-.12.4-.26.68-.42s.52-.31.74-.45a5.64 5.64 0 0 0 .58-.47 3.68 3.68 0 0 0 .51-.65 2.63 2.63 0 0 0 .37-.8 5.93 5.93 0 0 0 .15-.78c0-.25 0-.52.08-.81a8.55 8.55 0 0 1 .14-.86l.16-.81a4.44 4.44 0 0 0 .11-.67v-1.56a4.41 4.41 0 0 1 .08-.92c.05-.22.12-.48.19-.76a4.05 4.05 0 0 0 .12-.84v-1.76a3.8 3.8 0 0 1 .08-.8c.05-.24.12-.45.18-.65s.13-.4.2-.62a14.29 14.29 0 0 1 .8-1.67c.46-.91 1.14-2.14 2-3.69s1.83-3.13 2.84-4.74 2-3.15 3-4.64 1.79-2.84 2.52-4 1.37-2.23 2-3.07 1-1.45 1.24-1.83a5.52 5.52 0 0 0 .48-.87 1.92 1.92 0 0 0 .13-.64 4.2 4.2 0 0 0 0-.71 5.26 5.26 0 0 1 .25-1.4 9.48 9.48 0 0 1 1-2.26c.5-.83 1.08-1.8 1.76-2.9s1.33-2.19 1.95-3.25 1.2-2 1.71-2.81 1-1.49 1.45-2.06.77-1 .94-1.27a2.34 2.34 0 0 0 .33-.76A10.32 10.32 0 0 0 56 214a11.5 11.5 0 0 1 .59-2.18c.32-.87.73-1.93 1.22-3.17s1-2.49 1.5-3.77 1-2.49 1.45-3.65.87-2.2 1.27-3.11l1-2.31c.27-.63.45-1.09.55-1.4a4.25 4.25 0 0 0 .18-1 9.48 9.48 0 0 1 .18-1.28c.11-.5.29-1.24.53-2.2s.53-2 .86-3.15.68-2.2 1-3.2a24.63 24.63 0 0 1 1.12-2.58 11.36 11.36 0 0 1 .92-1.63c.26-.38.48-.66.64-.86a2.2 2.2 0 0 1 1.22-.75 5.11 5.11 0 0 1 .79-.17l.69-.08.76-.06a4.52 4.52 0 0 1 .82 0 2.25 2.25 0 0 1 .7.17 1.69 1.69 0 0 0 .71.12H80.13c.31 0 .62 0 1 .08s.67.09 1 .16l1 .23c.32.08.65.19 1 .31s.7.27 1.1.44.89.35 1.44.53 1.13.39 1.73.63 1.2.51 1.8.81 1.21.62 1.81.95 1.18.67 1.73 1 1.1.7 1.64 1.1 1.12.83 1.71 1.32 1.18 1 1.79 1.59 1.19 1.19 1.76 1.84 1.11 1.32 1.64 2 1 1.38 1.51 2.07l1.44 2.09c.48.69 1 1.42 1.49 2.18s1 1.57 1.51 2.43 1 1.73 1.42 2.63.85 1.76 1.25 2.61.77 1.65 1.14 2.42.73 1.47 1.08 2.14.67 1.33 1 2a20.69 20.69 0 0 1 .81 2l.72 2.07c.25.69.53 1.42.82 2.2s.58 1.6.85 2.48.51 1.77.73 2.66.4 1.75.56 2.57.3 1.61.42 2.36.21 1.5.29 2.22.15 1.44.23 2.15.17 1.41.29 2.1.22 1.38.32 2 .2 1.3.29 1.93.21 1.27.35 1.92.29 1.34.45 2 .34 1.39.52 2.09.35 1.41.53 2.12.36 1.42.55 2.12.36 1.34.52 1.91.3 1.12.41 1.62.19.87.26 1.12.13.48.17.69l.15.78a1.86 1.86 0 0 0 .37.85c.18.25.39.56.62.93l.57.92c.16.24.33.47.5.7s.37.44.56.65.38.42.58.63a2.07 2.07 0 0 0 .72.46c.28.11.56.22.84.36a10.28 10.28 0 0 1 .94.51 9 9 0 0 0 .84.49 3.9 3.9 0 0 0 .64.28 3.34 3.34 0 0 0 .92.16c.41 0 .73.05 1 .05h9.51a9.2 9.2 0 0 0 .93-.06.88.88 0 0 0 .55-.31 4.46 4.46 0 0 0 .42-.62c.14-.24.3-.49.48-.77a6.47 6.47 0 0 0 .55-1c.18-.42.32-.72.42-.92a4.4 4.4 0 0 0 .26-.65 2.27 2.27 0 0 0 .12-.72v-2.42a2.48 2.48 0 0 0-.19-1 2.3 2.3 0 0 0-.59-.78 4.66 4.66 0 0 0-.71-.57l-.61-.42q-.28-.21-.57-.45a8.88 8.88 0 0 0-.76-.54c-.33-.2-.61-.39-.85-.57s-.5-.41-.77-.66a3.53 3.53 0 0 1-.6-.71 7.81 7.81 0 0 1-.39-.72 2.49 2.49 0 0 1-.26-.84 6.62 6.62 0 0 1-.06-.88v-1.14c0-.47.05-1.11.09-1.91s.08-2.06.12-3.77.06-3.74.09-6.07.05-4.64.07-7 .06-4.42.13-6.35.14-3.54.23-4.85.15-2.33.19-3 .06-1.19 0-1.46 0-.43 0-.48a.66.66 0 0 1 0-.14.53.53 0 0 1 0-.12.41.41 0 0 1 .07-.11.26.26 0 0 1 .09-.09.41.41 0 0 1 .11-.07.42.42 0 0 1 .12 0h.25a.31.31 0 0 1 .12.05.58.58 0 0 1 .18.18.37.37 0 0 1 .05.11.28.28 0 0 1 0 .13v.45c0 .26 0 .56.06.91a5.88 5.88 0 0 1 0 .63.6.6 0 0 1-.06.19.51.51 0 0 1-.13.16.61.61 0 0 1-.16.12.76.76 0 0 1-.2.06.65.65 0 0 1-.2 0 .44.44 0 0 1-.19-.07l-.16-.13a.64.64 0 0 1-.1-.18.65.65 0 0 1-.05-.2 1.5 1.5 0 0 1 0-.2.76.76 0 0 1 .09-.18.67.67 0 0 1 .14-.15.77.77 0 0 1 .18-.1.69.69 0 0 1 .2 0 .64.64 0 0 1 .2 0 .77.77 0 0 1 .18.1.5.5 0 0 1 .14.15.51.51 0 0 1 .09.18 1.36 1.36 0 0 1 0 .2.65.65 0 0 1 0 .2.83.83 0 0 1-.26.31.73.73 0 0 1-.19.07.75.75 0 0 1-.21 0 .7.7 0 0 1-.19-.06l-.17-.11a.61.61 0 0 1-.12-.16.53.53 0 0 1-.07-.2V210.12a3.54 3.54 0 0 1 0-.48.53.53 0 0 1 0-.12.41.41 0 0 1 .07-.11.26.26 0 0 1 .09-.09.41.41 0 0 1 .11-.07.42.42 0 0 1 .12 0h.25a.31.31 0 0 1 .12.05.25.25 0 0 1 .1.08.39.39 0 0 1 .08.1.37.37 0 0 1 .05.11.28.28 0 0 1 0 .13.36.36 0 0 1 0 .14s0 .2-.07.47-.06.75-.09 1.45-.07 1.72-.13 3-.12 2.91-.16 4.83-.05 4 0 6.33.05 4.63.07 7 .06 4.35.1 6.07.07 3 .11 3.77.07 1.43.09 1.9 0 .84 0 1.11a3.53 3.53 0 0 0 .08.79 2.44 2.44 0 0 0 .27.74 2.15 2.15 0 0 0 .56.67 4 4 0 0 0 .77.51 4.48 4.48 0 0 1 .69.4l.74.56q.45.35.72.51a5.17 5.17 0 0 1 .68.53l.72.65a4.14 4.14 0 0 1 .56.67 2.47 2.47 0 0 1 .38 1 5.91 5.91 0 0 1 .12 1.18v1.77c0 .25 0 .53-.07.86a5.08 5.08 0 0 1-.14.83 3.64 3.64 0 0 1-.35.78 6 6 0 0 0-.41.89 7.75 7.75 0 0 1-.3.75c-.1.19-.22.44-.37.72s-.28.52-.38.7a5.77 5.77 0 0 1-.37.54 4.43 4.43 0 0 1-.45.51 4.18 4.18 0 0 1-.58.45 2 2 0 0 1-.93.29 9.24 9.24 0 0 1-1.18 0h-9.49l-.79-.05a6 6 0 0 1-.82-.12 3.83 3.83 0 0 1-.81-.26 5.07 5.07 0 0 1-.7-.35q-.3-.18-.81-.42l-.89-.41-.76-.33a2.61 2.61 0 0 1-.64-.36 5.06 5.06 0 0 1-.62-.53c-.22-.22-.44-.44-.63-.66l-.63-.72a8.8 8.8 0 0 1-.61-.79 11.56 11.56 0 0 1-.6-1 13.2 13.2 0 0 1-.5-1 3.11 3.11 0 0 1-.26-.89 4.45 4.45 0 0 1-.06-1 8.78 8.78 0 0 0 0-.91 10 10 0 0 0-.18-1.1c-.1-.48-.24-1-.4-1.59s-.34-1.23-.53-1.93-.37-1.41-.55-2.12l-.54-2.12-.51-2.11c-.17-.7-.32-1.39-.46-2.06s-.26-1.32-.35-1.95-.2-1.27-.29-1.92-.21-1.34-.33-2-.21-1.42-.29-2.13-.16-1.42-.23-2.13-.17-1.44-.28-2.18-.26-1.53-.42-2.34-.34-1.65-.55-2.53-.44-1.75-.71-2.61-.55-1.69-.85-2.47-.57-1.51-.82-2.21-.48-1.37-.71-2a17.08 17.08 0 0 0-.78-1.94c-.29-.63-.62-1.28-1-2s-.72-1.4-1.09-2.16-.75-1.57-1.14-2.41-.81-1.71-1.24-2.59-.89-1.74-1.39-2.58-1-1.64-1.5-2.4l-1.49-2.17-1.43-2.07c-.48-.69-1-1.36-1.49-2s-1-1.32-1.6-2a24.22 24.22 0 0 0-1.72-1.78c-.6-.56-1.18-1.08-1.76-1.55s-1.14-.88-1.67-1.26-1.07-.72-1.61-1-1.12-.63-1.71-.94-1.19-.59-1.78-.86a18.23 18.23 0 0 0-1.75-.7c-.59-.2-1.17-.37-1.75-.52s-1.09-.28-1.51-.39-.78-.22-1.07-.31-.59-.16-.89-.22l-.89-.14a8.6 8.6 0 0 0-.86-.08h-6.41a2.82 2.82 0 0 1-.89-.21 3.26 3.26 0 0 0-.75-.23c-.2 0-.45-.06-.74-.09l-.8-.06h-.76a1.64 1.64 0 0 0-.8.18 2 2 0 0 0-.76.72 11.74 11.74 0 0 0-.84 1.53 20.76 20.76 0 0 0-1 2.52c-.34 1-.66 2.05-1 3.17s-.57 2.16-.79 3.11-.37 1.78-.48 2.46a10.74 10.74 0 0 1-.27 1.35c-.08.22-.18.48-.31.79l-.58 1.4q-.39 1-1 2.31t-1.23 3.12c-.43 1.17-.89 2.39-1.38 3.68s-1 2.54-1.41 3.78-.82 2.27-1.08 3.12-.43 1.41-.49 1.72l-.18.9a3 3 0 0 1-.34.9 7 7 0 0 1-.56.86l-.93 1.24a21 21 0 0 0-1.38 2c-.49.8-1 1.75-1.65 2.83s-1.19 2.02-1.8 3.18-1.17 2.06-1.6 2.85a8.11 8.11 0 0 0-.82 2c-.13.54-.21 1-.25 1.26a4.85 4.85 0 0 1-.58 1.72l-.55.91c-.24.39-.63 1-1.18 1.84s-1.19 1.87-1.89 3.09-1.51 2.6-2.43 4.11-1.85 3.07-2.81 4.68-1.83 3.2-2.64 4.75-1.38 2.76-1.73 3.61-.56 1.39-.63 1.63a6.75 6.75 0 0 1-.22.73 2.39 2.39 0 0 0-.15.82V261.91a5 5 0 0 1-.19 1.06 7.7 7.7 0 0 0-.22.91 6.2 6.2 0 0 0-.07.69v1.49c0 .28-.06.52-.1.77s-.09.47-.12.69a4.16 4.16 0 0 0-.07.75v.88a7.3 7.3 0 0 1-.08.92 3.91 3.91 0 0 1-.32 1 4.89 4.89 0 0 1-.44.78 3.43 3.43 0 0 1-.44.53 6 6 0 0 1-.71.59 6.35 6.35 0 0 1-1 .62 8.66 8.66 0 0 0-.82.48 2.68 2.68 0 0 1-.57.32 1.94 1.94 0 0 1-.66.17 6.42 6.42 0 0 0-.75.1 4.91 4.91 0 0 0-.67.19c-.2.07-.41.14-.61.19l-.67.2-.72.19-.89.19q-.53.1-.87.21L21 276l-.88.27a6.11 6.11 0 0 0-.77.3 3.85 3.85 0 0 1-.74.26 3.22 3.22 0 0 0-.77.29 5.23 5.23 0 0 1-.75.31 4.91 4.91 0 0 1-.71.19 4.47 4.47 0 0 1-1 .08h-3.17a5.19 5.19 0 0 0-.86.16 11.06 11.06 0 0 0-1.07.35 8 8 0 0 1-.9.29 3.25 3.25 0 0 1-.69.08H7.15c-.26 0-.54-.06-.85-.11a2.56 2.56 0 0 1-1-.39 4.6 4.6 0 0 1-.75-.54 5.79 5.79 0 0 1-.54-.61 6.47 6.47 0 0 1-.54-.82c-.16-.31-.33-.62-.49-1s-.31-.66-.45-1a6.12 6.12 0 0 1-.31-1 5.72 5.72 0 0 1-.12-1v-2.81c0-.24 0-.51.07-.75s.07-.49.12-.73.1-.47.16-.69.13-.49.23-.83.25-.75.43-1.22.4-1 .63-1.51.48-1.1.73-1.69.49-1.16.75-1.72.47-1 .65-1.35a9.86 9.86 0 0 1 .5-.87c.15-.24.34-.52.56-.85a2.78 2.78 0 0 1 .7-.74c.25-.17.48-.34.7-.52a3.28 3.28 0 0 0 .57-.61 3.93 3.93 0 0 1 .59-.64 2.44 2.44 0 0 0 .52-.57l.38-.57c.13-.2.26-.41.41-.63l.45-.66c.14-.23.29-.47.44-.73s.29-.53.45-.8.31-.56.45-.83.27-.54.39-.81a6.19 6.19 0 0 1 .47-.92c.2-.32.39-.62.58-.88a3.07 3.07 0 0 0 .43-1 5.83 5.83 0 0 1 .35-1.09c.13-.31.26-.63.37-1s.24-.67.37-1 .26-.71.41-1.08.28-.78.4-1.2.24-.87.35-1.34.2-.92.28-1.39.15-.92.23-1.35.16-.81.25-1.15l.32-1.18.27-1c.06-.24.12-.6.2-1.09s.15-1 .23-1.56.17-1.21.26-2 .18-1.64.27-2.63.16-2 .24-3.12.13-2.11.18-3.08.07-1.85.07-2.63v-37.91c0-.88.05-1.74.1-2.59s.09-1.68.15-2.48.09-1.54.11-2.2 0-1.21 0-1.67v-1.23c0-.35 0-.71.05-1.07s0-.73.06-1.13.06-.85.11-1.37.15-1.09.29-1.73.31-1.36.54-2.16.39-1.43.5-1.92.25-1 .4-1.41.25-.79.3-1a7.72 7.72 0 0 1 .23-.75 4 4 0 0 0 .18-.78c0-.25.06-.49.11-.72s.1-.45.16-.65.12-.46.22-.78a11.16 11.16 0 0 1 .4-1.11 14.77 14.77 0 0 1 .68-1.43c.29-.53.61-1.13 1-1.82s.74-1.41 1.13-2.2.77-1.55 1.13-2.31.64-1.41.86-2a11.26 11.26 0 0 0 .52-1.5 4.84 4.84 0 0 0 .2-1.19v-1.79c0-.29 0-.6.05-.92s0-.62 0-.91V128.68c0-.43 0-.81.06-1.2a9.31 9.31 0 0 0 0-1.18v-2.83a1.09 1.09 0 0 1 .08-.15.46.46 0 0 1 .12-.12.71.71 0 0 1 .14-.1.44.44 0 0 1 .16-.06h.33a.44.44 0 0 1 .16.06.71.71 0 0 1 .14.1.43.43 0 0 1 .11.12.55.55 0 0 1 .08.15.53.53 0 0 1 0 .17v.08z"/><path class="cls-2" d="M140.85 210.64v-.46a7.84 7.84 0 0 1 .1-1.29 17.49 17.49 0 0 1 .39-1.87c.18-.69.36-1.36.56-2s.39-1.25.56-1.81.34-1.09.5-1.58.31-1 .44-1.39.25-.83.35-1.19.21-.71.3-1 .2-.67.31-1a7.33 7.33 0 0 1 .39-1 8.85 8.85 0 0 1 .57-1.09l.74-1.22.75-1.28c.25-.41.47-.79.66-1.13s.37-.66.51-.95.28-.55.41-.8.27-.5.42-.75.33-.56.55-.91.47-.75.74-1.22.55-1 .83-1.48l.78-1.43c.24-.44.47-.84.67-1.18s.36-.64.47-.87.24-.45.34-.67a1.37 1.37 0 0 1 .46-.52 3.05 3.05 0 0 0 .51-.43 6 6 0 0 0 .4-.48c.12-.17.26-.37.4-.61s.28-.43.41-.61a5.15 5.15 0 0 1 .52-.56 7.88 7.88 0 0 1 .78-.64c.29-.22.61-.45.95-.68l.89-.63.68-.51a6.65 6.65 0 0 1 .75-.48 3.83 3.83 0 0 1 .76-.34 3.1 3.1 0 0 0 .81-.38 9.78 9.78 0 0 1 1.07-.56l1.4-.63a53.5 53.5 0 0 0 3.26-1.7l1.28-.71.91-.5c.25-.14.42-.07.53.2s0 .43-.2.48-.27 0-.11-.21.27-.12.3.19 0 .57 0 .79v.74a2.4 2.4 0 0 0 .21.86c.14.31.26.58.38.83s.24.51.36.79.24.57.36.87a8.61 8.61 0 0 0 .37.8 7.38 7.38 0 0 0 .4.69l.42.64.41.62c.13.2.26.4.4.6s.26.41.39.63l.43.73c.15.26.33.54.52.85l.62.95c.22.32.44.63.66.92s.44.58.66.85l.67.83.63.78c.2.24.4.46.6.67l.58.62c.18.21.37.4.55.59l.54.54c.18.18.38.35.57.53l.62.5.65.51.67.55.71.6.77.65.83.65.85.65.81.62.72.56c.23.17.44.33.64.46l.59.39.59.37.58.36c.19.13.39.24.57.35s.47.27.84.47l1.11.57.91.46.76.39.85.41 1 .45a13 13 0 0 0 1.27.5l1.48.5 1.48.49 1.34.43c.41.13.8.23 1.15.31l.91.21c.27.06.58.11.95.17s.72.13 1.05.21l1.09.27 1.06.29.95.27 1 .31 1 .32.89.28.73.2a8.5 8.5 0 0 1 .82.29 2.94 2.94 0 0 1 .87.53c.25.22.49.46.73.71a9.2 9.2 0 0 1 .62.7c.17.22.37.48.58.78s.46.63.73 1 .54.77.83 1.2.56.86.8 1.28.49.84.71 1.23.42.74.61 1.06.37.6.54.84.32.46.46.68.27.43.38.63l.35.6c.11.19.22.4.33.61s.21.42.31.61l.46.8a7.07 7.07 0 0 1 .44.84c.09.22.18.42.27.62s.17.39.26.59.16.4.24.6.14.47.22.8a5 5 0 0 1 .16.86c0 .24.05.48.06.73a5.8 5.8 0 0 1-.06.94 2.42 2.42 0 0 1-.33 1 6.84 6.84 0 0 1-.56.74l-.55.63c-.17.19-.35.38-.53.56a1.72 1.72 0 0 0-.4.7l-.29.84c-.1.28-.2.52-.28.73s-.17.4-.25.59-.21.44-.35.73a3.29 3.29 0 0 0-.28.79c-.05.22-.09.46-.14.71s-.1.49-.13.72-.07.47-.1.72-.12.25-.27 0-.11-.34.14-.3a5.89 5.89 0 0 0 .69.05H224.79l.92.06.93.06h4.49a2.41 2.41 0 0 0 .67-.13.66.66 0 0 0 .42-.45c.08-.23.16-.48.24-.74a6.47 6.47 0 0 1 .27-.72q.15-.32.33-.66c.12-.24.26-.5.43-.79l.53-.88c.18-.31.35-.6.5-.88s.29-.54.4-.76a4.49 4.49 0 0 0 .24-.67 4 4 0 0 0 .08-.86c0-.36 0-.66.06-.89s.08-.53.14-.88.13-.71.2-1.08.13-.69.18-1 .07-.53.08-.74 0-.5 0-.85v-.95c0-.28 0-.62.1-1s.12-.93.18-1.55.12-1.32.17-2.1.11-1.6.15-2.44.07-1.68.09-2.51 0-1.58 0-2.23v-9.28c0-.23-.05-.58-.08-1.06a12.41 12.41 0 0 1 0-1.36V185.21c0-.43-.05-.87-.09-1.32s-.09-.94-.13-1.45-.08-1-.12-1.58-.09-1.14-.16-1.77-.12-1.32-.17-2.06-.11-1.53-.16-2.36l-.15-2.46c-.05-.81-.07-1.57-.09-2.26s0-1.31-.06-1.83 0-1-.07-1.33-.07-.67-.11-.91-.09-.52-.14-.85-.09-.61-.12-.85 0-.47-.07-.68a2.07 2.07 0 0 0-.21-.69 1.41 1.41 0 0 1-.16-.47 1.16 1.16 0 0 1 0-.18.83.83 0 0 1 .09-.16.81.81 0 0 1 .12-.14.65.65 0 0 1 .15-.1l.18-.07a.82.82 0 0 1 .36 0 .67.67 0 0 1 .18.07.65.65 0 0 1 .15.1l.12.14a.8.8 0 0 1 .08.16.61.61 0 0 1 .05.18.66.66 0 0 1 0 .26 1.09 1.09 0 0 1-.11.28 1 1 0 0 1-.18.17.91.91 0 0 1-.22.11 1 1 0 0 1-.24 0 .69.69 0 0 1-.24 0 .53.53 0 0 1 .01-.16.69.69 0 0 1-.16-.18.67.67 0 0 1-.1-.23 1 1 0 0 1 0-.24 1.05 1.05 0 0 1 .06-.24 2.39 2.39 0 0 1 .13-.21 1 1 0 0 1 .2-.15.63.63 0 0 1 .23-.08.65.65 0 0 1 .24 0 .73.73 0 0 1 .24.07 1 1 0 0 1 .2.15.72.72 0 0 1 .14.2.62.62 0 0 1 .07.23 1 1 0 0 1 0 .25 1.09 1.09 0 0 1-.09.23.9.9 0 0 1-.15.19.92.92 0 0 1-.21.13 1.05 1.05 0 0 1-.24.06.72.72 0 0 1-.25 0 .62.62 0 0 1-.22-.1.69.69 0 0 1-.18-.16.53.53 0 0 1-.12-.22.64.64 0 0 1-.05-.24v-.07c0 .04 0 0 0 0a1.16 1.16 0 0 1 0-.18.83.83 0 0 1 .09-.16.81.81 0 0 1 .12-.14.65.65 0 0 1 .15-.1l.18-.07a.82.82 0 0 1 .36 0 .67.67 0 0 1 .18.07.65.65 0 0 1 .15.1l.12.14a.8.8 0 0 1 .08.16.61.61 0 0 1 .05.18 1 1 0 0 0 .16.32 1.07 1.07 0 0 1 .11.69c0 .3-.05.57-.08.81s-.05.51-.07.82 0 .58 0 .83V168.14c0 .52 0 1.13.05 1.82s.06 1.44.1 2.25l.15 2.46c.05.82.1 1.6.16 2.34s.11 1.43.18 2.06.12 1.23.16 1.78.09 1.07.13 1.57.09 1 .14 1.46.08.92.11 1.36 0 .88 0 1.31v6.62c0 .56 0 1.06.05 1.49a12.41 12.41 0 0 1 0 1.36c0 .48-.06.83-.08 1.06s0 .52-.05.85 0 .73 0 1.16V219.26c0 .4 0 .7-.08.94s-.05.51-.09.8-.08.6-.11.94 0 .7-.06 1.07 0 .74-.09 1.15-.09.73-.13 1a4.12 4.12 0 0 1-.23.86 8 8 0 0 1-.33.83l-.37.78-.4.94c-.14.34-.26.64-.38.92s-.23.55-.33.8-.21.49-.33.73a5.53 5.53 0 0 0-.28.65c-.07.2-.15.4-.23.59a2.35 2.35 0 0 1-.33.57 3.2 3.2 0 0 1-.47.5 2 2 0 0 1-.55.36 2 2 0 0 1-.75.16h-5.29l-.93.06-.92.06h-4.64a3.38 3.38 0 0 1-.72-.1l-.73-.14a1.22 1.22 0 0 1-.64-.29 1.48 1.48 0 0 1-.38-.65 2.07 2.07 0 0 1-.09-.75 5.28 5.28 0 0 1 .1-.66c0-.22.1-.49.16-.82s.13-.63.18-.92a3.89 3.89 0 0 1 .27-.86l.38-.87a10 10 0 0 0 .38-1c.12-.37.24-.69.35-1s.23-.55.36-.83a2 2 0 0 1 .47-.69l.52-.53.58-.59a2.93 2.93 0 0 0 .53-.75 1.85 1.85 0 0 0 .22-.75v-.76a3.52 3.52 0 0 0-.12-.89 7.91 7.91 0 0 0-.23-.75l-.25-.62c-.08-.21-.2-.49-.34-.84s-.26-.62-.36-.81-.18-.39-.27-.6-.18-.41-.27-.63-.18-.41-.26-.61l-.26-.61c-.09-.2-.18-.41-.29-.63s-.22-.45-.37-.71l-.51-.87c-.19-.32-.4-.67-.64-1s-.48-.75-.75-1.13-.55-.77-.86-1.15-.63-.74-.95-1.07l-.84-.9c-.25-.27-.52-.58-.81-.92s-.53-.65-.73-.9a2.34 2.34 0 0 0-.64-.59 4.11 4.11 0 0 0-.64-.31c-.19-.08-.42-.16-.7-.25l-.88-.27-1-.26-1-.24-1-.22c-.31-.08-.68-.18-1.12-.33a9.38 9.38 0 0 1-1-.38c-.26-.11-.58-.23-.95-.36l-.93-.32c-.25-.09-.54-.18-.9-.28l-1.17-.31-1.36-.37-1.5-.4-1.56-.4c-.52-.13-1-.25-1.39-.37s-.78-.24-1.1-.36-.63-.25-.91-.38l-.78-.36-.69-.34a8.49 8.49 0 0 1-.86-.48l-.83-.5-.59-.37-.57-.4-.56-.4-.58-.43c-.19-.14-.4-.29-.6-.46l-.63-.51-.69-.57c-.24-.19-.5-.39-.78-.59s-.58-.41-.89-.62l-.9-.63c-.3-.22-.57-.42-.83-.63l-.71-.58-.66-.55-.67-.54c-.22-.18-.45-.37-.66-.57s-.42-.39-.61-.59-.37-.41-.54-.61l-.52-.62-.55-.66q-.3-.34-.6-.72l-.63-.77c-.21-.27-.43-.54-.67-.81s-.49-.56-.73-.85l-.75-.89-.76-.92a9.73 9.73 0 0 1-.65-.86l-.45-.7-.37-.61-.39-.59-.4-.61c-.13-.21-.29-.43-.46-.67s-.34-.51-.5-.79-.33-.55-.47-.83-.28-.53-.42-.79-.26-.48-.38-.68-.22-.39-.33-.57a3.92 3.92 0 0 1-.29-.58 2.34 2.34 0 0 1-.15-.68 6.85 6.85 0 0 1 0-.79v-.73c0-.22 0-.49.05-.79a2.41 2.41 0 0 1 .2-.81.91.91 0 0 1 .78-.43 2.45 2.45 0 0 1 .95 0q.35.09.21.72a1 1 0 0 1-.5.79 7 7 0 0 0-.88.46c-.34.21-.75.47-1.23.79l-1.56 1-1.6 1c-.5.31-1 .62-1.5.95a10.32 10.32 0 0 1-1 .62 2.76 2.76 0 0 1-.73.2 4.09 4.09 0 0 0-.75.19 2.69 2.69 0 0 0-.61.31 6.25 6.25 0 0 0-.65.48q-.37.28-.81.69l-1 1a9.5 9.5 0 0 0-.88.94q-.3.38-.6.72c-.2.22-.39.42-.57.59a1.77 1.77 0 0 1-.73.41 1.47 1.47 0 0 0-.66.37c-.14.16-.28.34-.43.54s-.32.47-.52.8-.41.73-.64 1.18-.48.93-.74 1.46-.53 1-.79 1.52-.49.93-.69 1.29-.39.67-.55.91-.32.48-.47.69-.32.47-.49.75l-.56.93-.65 1.13-.72 1.3-.67 1.2c-.2.36-.37.7-.52 1a9.55 9.55 0 0 0-.4 1c-.11.34-.23.67-.34 1s-.24.67-.35 1-.24.75-.37 1.19l-.42 1.39c-.15.49-.31 1-.47 1.58s-.34 1.16-.51 1.8-.35 1.29-.5 1.95A14 14 0 0 0 142 209c-.05.52-.08.93-.1 1.23s0 .48 0 .52a.2.2 0 0 1 0 .11.54.54 0 0 1-.14.2l-.1.07H141.2l-.2-.13a.24.24 0 0 1-.08-.09l-.06-.11V210.63z"/><path class="cls-2" d="M236.22 81.32h6.24a8.13 8.13 0 0 1 1.18.1c.35.06.76.15 1.23.26l1.58.39 1.9.46 2 .5c.66.16 1.29.33 1.89.49l1.69.49c.54.16 1 .31 1.52.47s.94.31 1.37.49.87.36 1.29.57.85.42 1.29.66.89.5 1.36.8l1.46 1 1.5 1c.51.36 1 .73 1.57 1.13s1.06.8 1.57 1.21 1 .81 1.49 1.22 1 .84 1.44 1.28 1 .9 1.44 1.39 1 1 1.47 1.55 1 1.09 1.44 1.65.94 1.12 1.4 1.69l1.37 1.71c.45.56.89 1.13 1.31 1.7l1.3 1.7c.44.57.91 1.15 1.41 1.73l1.56 1.81c.53.63 1.06 1.27 1.59 1.93s1 1.34 1.55 2 1 1.4 1.51 2.13 1 1.47 1.43 2.21l1.35 2.22 1.31 2.2 1.33 2.2L294 126c.52.85 1.08 1.79 1.69 2.8s1.2 2 1.77 3 1.15 2 1.72 2.91 1.17 1.94 1.8 3 1.26 2 1.88 2.92 1.23 1.81 1.84 2.62 1.19 1.59 1.76 2.33 1.14 1.47 1.68 2.2 1.08 1.45 1.61 2.18 1.05 1.49 1.57 2.26 1.06 1.6 1.61 2.49 1.13 1.83 1.73 2.82 1.23 2 1.9 3 1.34 2 2 3 1.34 1.93 2 2.83 1.25 1.74 1.84 2.53l1.61 2.13 1.33 1.76c.4.53.8 1 1.19 1.53s.76 1 1.13 1.48.72 1 1.06 1.48.65.94.94 1.35.56.75.79 1 .45.53.63.72l.51.55a6 6 0 0 1 .47.52c.15.18.3.36.46.53l.48.55c.18.19.36.39.56.59l.62.63.73.71.83.8c.3.27.62.57 1 .88s.75.64 1.18 1 .88.67 1.37 1l1.37 1c.42.3.79.56 1.1.76s.64.42 1 .63l1.05.65 1 .58.76.42q.33.16.87.39l.9.38.76.35.84.38.82.36.73.31.73.32.87.39 1.13.48c.44.19.92.38 1.43.58l1.56.61 1.5.58 1.36.52 1.29.48 1.26.46 1.17.43c.37.14.73.28 1.08.44a9 9 0 0 1 1.19.67l1.1.71.79.49c.22.14.43.29.63.44a3.93 3.93 0 0 1 .5.5 3.86 3.86 0 0 1 .45.7 2.86 2.86 0 0 1 .31.89 5.33 5.33 0 0 1 .1.83v5.83a3.44 3.44 0 0 1-.11.89 4.65 4.65 0 0 1-.28.79 6.72 6.72 0 0 1-.35.71c-.13.22-.29.47-.48.77a3.9 3.9 0 0 1-.6.73 3.76 3.76 0 0 1-.62.44 5.07 5.07 0 0 1-.7.31l-.75.25a4.75 4.75 0 0 1-.82.19c-.32 0-.71.09-1.17.13s-.92.1-1.41.19l-1.45.3c-.49.11-.92.21-1.31.32l-1 .27-.84.24c-.31.07-.58.12-.84.16l-.78.08a7.07 7.07 0 0 1-1 0c-.41 0-.93-.07-1.56-.1s-1.27-.06-1.9-.11-1.2-.09-1.74-.16l-1.37-.17-.95-.09a3.61 3.61 0 0 1-.86-.2l-.9-.32-1.15-.38-1.4-.52-1.34-.49-1.14-.45a8.82 8.82 0 0 1-1-.51 13.79 13.79 0 0 1-1.32-.87c-.54-.39-1.13-.84-1.79-1.36l-1.93-1.56-1.73-1.44c-.53-.43-1-.8-1.31-1.11l-.86-.76-.71-.61c-.25-.22-.47-.43-.67-.64l-.76-.82-.94-1c-.32-.33-.67-.68-1-1s-.78-.72-1.22-1.11l-1.28-1.1-1.11-.95c-.33-.29-.64-.54-.92-.76l-.87-.68c-.3-.23-.65-.5-1-.81l-1.3-1-1.52-1.2c-.54-.42-1-.82-1.47-1.19l-1.16-1c-.33-.3-.63-.57-.92-.81l-1.06-.83c-.43-.32-1-.74-1.7-1.24l-2.28-1.64c-.82-.58-1.6-1.13-2.34-1.67s-1.41-1-2-1.45-1.09-.82-1.52-1.16-.82-.67-1.21-1-.78-.71-1.22-1.13-.88-.86-1.36-1.33l-1.35-1.36-1.13-1.12-1-1-1.25-1.25-1.76-1.73c-.68-.64-1.39-1.31-2.13-2l-2.19-2-1.88-1.65c-.53-.46-1-.84-1.33-1.12s-.63-.53-.87-.7-.46-.36-.65-.53l-.69-.62-1-1-1.4-1.34-1.57-1.46-1.38-1.29-1.2-1.11-1.31-1.21-1.55-1.44c-.57-.5-1.14-1-1.72-1.55l-1.68-1.55c-.55-.5-1-.94-1.48-1.32l-1.22-1.07c-.38-.33-.77-.68-1.16-1l-1.22-1.11-1.18-1.08-1-.93c-.29-.27-.54-.48-.73-.65s-.42-.34-.65-.51l-.71-.57c-.25-.2-.5-.42-.76-.67l-.88-.88c-.33-.33-.69-.67-1.08-1s-.79-.68-1.22-1-.86-.71-1.33-1.08l-1.54-1.2c-.55-.42-1.13-.87-1.72-1.34s-1.15-.91-1.66-1.33l-1.35-1.08c-.39-.31-.73-.56-1-.77s-.57-.39-.82-.54l-.72-.41-.71-.38-.67-.36-.73-.44c-.28-.17-.51-.32-.71-.46a6.48 6.48 0 0 0-.71-.39l-.76-.32a8.27 8.27 0 0 1-.86-.39c-.34-.16-.67-.33-1-.5l-.9-.44-.73-.3-.67-.26a2.25 2.25 0 0 0-.73-.14 3.26 3.26 0 0 1-.79-.13l-.72-.2-.65-.22c-.23-.08-.49-.17-.76-.28l-.78-.32a8.61 8.61 0 0 0-.86-.29c-.32-.09-.4-.21-.25-.36s.3-.06.42.26a8.4 8.4 0 0 0 .34.79c.1.21.2.41.32.62l.33.6a6.75 6.75 0 0 1 .34.66c.11.24.22.49.33.76s.21.59.31.94.19.73.27 1.15.14.84.22 1.25l.24 1.22c.08.41.16.81.23 1.22s.16.78.24 1.13a9.42 9.42 0 0 0 .26 1c.1.29.19.54.29.76s.22.49.35.81a7.92 7.92 0 0 1 .31.94c.07.31.13.59.16.82s0 .52.08.85 0 .68 0 1V148.47c0 .35 0 .72.07 1.11s.06.73.08 1 .05.6.08.91 0 .59.08.87.07.54.11.79.07.49.1.71.08.51.15.88.12.73.15 1.07.06.65.07.94 0 .56 0 .77v2.89a4.52 4.52 0 0 0 .1.87 6.18 6.18 0 0 1 .11 1.07 8.42 8.42 0 0 1 0 .85 1.11 1.11 0 0 1-.1.29 1.08 1.08 0 0 1-.18.24 1.38 1.38 0 0 1-.25.17 1.11 1.11 0 0 1-.3.08 1 1 0 0 1-.3 0 1 1 0 0 1-.28-.11.9.9 0 0 1-.23-.2.87.87 0 0 1-.16-.26.73.73 0 0 1-.06-.3.77.77 0 0 1 0-.3 1 1 0 0 1 .13-.27.7.7 0 0 1 .2-.22 1.16 1.16 0 0 1 .27-.14.92.92 0 0 1 .6 0 .87.87 0 0 1 .27.14.88.88 0 0 1 .21.22.72.72 0 0 1 .12.27 1.06 1.06 0 0 1 0 .31 1 1 0 0 1-.07.29.84.84 0 0 1-.15.26.91.91 0 0 1-.24.2.86.86 0 0 1-.28.11 1 1 0 0 1-.3 0 1 1 0 0 1-.29-.08 1.1 1.1 0 0 1-.25-.17.88.88 0 0 1-.19-.24 1.08 1.08 0 0 1-.09-.29v-7.24c0-.28 0-.61-.07-1s-.08-.69-.1-.91-.05-.46-.08-.71-.06-.53-.1-.81-.07-.58-.11-.89l-.12-.91c0-.3-.06-.67-.07-1.11s0-.82 0-1.17v-2.62c0-.38 0-.7-.07-1s-.06-.67-.1-1-.07-.6-.09-.84l-.06-.71a5.61 5.61 0 0 0-.13-.81 6.42 6.42 0 0 0-.22-.84c-.08-.25-.16-.54-.25-.86s-.17-.65-.25-1-.17-.73-.26-1.12-.21-.77-.33-1.17-.24-.79-.37-1.19l-.37-1.15c-.12-.36-.24-.69-.36-1s-.24-.57-.35-.81-.23-.47-.32-.67L232 131l-.37-.62c-.14-.22-.26-.45-.39-.67s-.24-.47-.35-.72a2.92 2.92 0 0 1-.24-1 1.71 1.71 0 0 1 .18-1 1.06 1.06 0 0 1 .69-.56 1.79 1.79 0 0 1 .86 0c.28.07.53.15.75.22l.7.25.74.27.73.22c.25.07.53.16.83.27l.75.26a5.69 5.69 0 0 0 .68.2 3.73 3.73 0 0 1 .71.27q.31.18.63.33c.21.1.45.21.73.32l.92.38 1 .37.88.31a4.79 4.79 0 0 1 .88.44 4.5 4.5 0 0 1 .8.6c.21.21.42.41.65.61a7.17 7.17 0 0 0 .61.5c.18.14.39.28.62.43s.45.31.69.47l.69.52.8.62 1 .8 1.36 1.07c.51.41 1.07.84 1.66 1.3l1.74 1.31c.56.41 1.09.8 1.57 1.17l1.39 1c.44.33.88.66 1.3 1l1.19.94.95.81c.26.24.51.49.74.74s.43.5.6.72l.5.62a9.27 9.27 0 0 0 .66.71l1 .93 1.17 1.08 1.21 1.1 1.16 1 1.24 1.07c.44.39.94.83 1.48 1.33l1.68 1.54 1.73 1.54c.57.51 1.1 1 1.58 1.43s.92.84 1.32 1.19l1.21 1.09 1.41 1.26 1.6 1.44 1.45 1.31c.42.38.76.69 1 .94s.46.47.62.66.33.38.53.59.48.45.83.74l1.35 1.14 1.87 1.66 2.21 2c.75.69 1.46 1.36 2.14 2l1.77 1.73 1.24 1.25 1 1 1.13 1.12 1.34 1.35c.48.47.92.91 1.35 1.32s.83.78 1.2 1.1.76.66 1.18 1 .92.71 1.5 1.14l2 1.44 2.35 1.66 2.3 1.63 1.73 1.26c.44.33.81.62 1.09.87l.9.81c.33.3.71.63 1.15 1s.92.75 1.46 1.17l1.54 1.18 1.32 1 1 .81q.47.36.87.72l.9.77 1.13.93c.42.33.87.7 1.33 1.08s.89.75 1.28 1.1.77.68 1.11 1l1 1c.34.32.62.6.82.83s.38.47.55.71a6.93 6.93 0 0 0 1.33 1.45c.34.3.77.66 1.3 1.09l1.75 1.4c.63.51 1.28 1 1.93 1.52s1.23.92 1.75 1.27.93.62 1.25.8a10.41 10.41 0 0 0 2 .88c.42.14.88.27 1.37.41l1.47.42a10.94 10.94 0 0 1 1.22.4 4.14 4.14 0 0 1 .74.38 1.63 1.63 0 0 0 .6.26 7.77 7.77 0 0 0 .91.14l1.34.1c.52 0 1.08.05 1.69.05s1.24 0 1.88-.05 1.15-.05 1.56-.09a7.13 7.13 0 0 1 1 0l.71.06h.69a3.86 3.86 0 0 0 .75-.1 6.52 6.52 0 0 0 .95-.28l1.31-.45 1.47-.48 1.43-.43 1-.26.72-.18.77-.22a2.37 2.37 0 0 0 .73-.36 2.68 2.68 0 0 0 .61-.67 5.13 5.13 0 0 0 .52-1 3.91 3.91 0 0 0 .26-1q.06-.4.09-.93v-5.04a3.79 3.79 0 0 0-.07-.93 2.48 2.48 0 0 0-.38-.74 3.47 3.47 0 0 0-.59-.68c-.2-.17-.44-.35-.72-.55s-.62-.43-1-.69a11.39 11.39 0 0 0-1.11-.63c-.33-.16-.67-.31-1-.45s-.75-.29-1.16-.43l-1.27-.43c-.44-.14-.88-.29-1.31-.45l-1.37-.47-1.52-.52-1.6-.51-1.49-.48c-.46-.14-.87-.27-1.22-.4s-.66-.25-.92-.37l-.7-.34-.72-.34-.83-.38-.86-.39-.75-.38c-.23-.13-.53-.3-.89-.53s-.65-.41-.85-.55l-.69-.51c-.27-.18-.58-.38-.95-.6s-.73-.42-1.09-.63-.69-.43-1-.64l-1.1-.76-1.41-.94q-.76-.51-1.44-1c-.46-.32-.88-.63-1.26-.92l-.99-.75q-.51-.39-.93-.75c-.28-.25-.55-.49-.79-.72s-.46-.45-.66-.68-.39-.44-.56-.65-.33-.43-.47-.63-.28-.4-.39-.58-.23-.38-.36-.57-.26-.4-.42-.62-.34-.49-.56-.8l-.79-1.08c-.3-.41-.61-.86-.94-1.34s-.68-1-1-1.46-.74-1-1.13-1.47-.79-1-1.19-1.54-.85-1.12-1.33-1.76-1-1.36-1.62-2.15-1.22-1.64-1.86-2.54-1.3-1.85-2-2.84-1.36-2-2-3-1.31-2-1.91-3-1.17-1.93-1.72-2.81-1.08-1.7-1.59-2.47-1-1.51-1.56-2.24-1.06-1.46-1.6-2.17-1.1-1.46-1.68-2.2-1.18-1.53-1.79-2.35-1.22-1.71-1.85-2.65-1.26-1.92-1.89-2.93-1.23-2-1.8-3-1.15-1.93-1.72-2.91l-1.77-3-1.69-2.81-1.46-2.39c-.45-.75-.9-1.48-1.33-2.21s-.87-1.45-1.31-2.18-.88-1.47-1.34-2.21-.93-1.47-1.41-2.18-1-1.42-1.49-2.11-1-1.35-1.54-2-1-1.3-1.58-1.93l-1.57-1.82c-.5-.6-1-1.18-1.42-1.75s-.88-1.14-1.3-1.7-.86-1.12-1.31-1.69l-1.36-1.7-1.38-1.67c-.46-.55-.94-1.09-1.42-1.63s-1-1-1.44-1.52-.95-.94-1.42-1.37-.95-.85-1.43-1.25-1-.81-1.47-1.21-1-.8-1.55-1.19-1-.77-1.55-1.12l-1.5-1c-.48-.33-.95-.64-1.42-.92s-.9-.55-1.33-.78-.85-.44-1.25-.63-.82-.37-1.24-.53-.86-.31-1.34-.45l-1.5-.43-1.77-.5-1.87-.41-2-.4-1.91-.34c-.59-.09-1.11-.17-1.56-.22l-1.15-.12c-.31 0-.67-.06-1.08-.08h-6.28l-.17-.05a.44.44 0 0 1-.15-.08.69.69 0 0 1-.13-.11l-.1-.14a.58.58 0 0 1-.06-.17.88.88 0 0 1 0-.17 1.11 1.11 0 0 1 0-.17.52.52 0 0 1 .06-.16.71.71 0 0 1 .1-.14l.13-.12.15-.08h.17z"/><path class="cls-2" d="M29.43 125.32v-1.93c0-.6 0-1.27.05-2s0-1.45.06-2.1.08-1.21.13-1.68.1-.85.14-1.15.07-.59.11-.89a7.17 7.17 0 0 1 .18-.9 7.84 7.84 0 0 1 .42-1.11l.69-1.52.89-2 1.07-2.33 1-2.2c.29-.66.55-1.22.78-1.69l.57-1.16a6.89 6.89 0 0 0 .38-.86 7.44 7.44 0 0 0 .29-1.44c.08-.69.2-1.42.35-2.19s.29-1.62.43-2.54.27-1.78.38-2.58.2-1.5.28-2.09.14-1.08.17-1.46a8.54 8.54 0 0 0 0-.89v-.68c0-.23-.05-.53-.07-.92s0-.73-.05-1 0-.66-.06-1 0-.71-.07-1-.05-.72-.07-1.13 0-.9 0-1.47v-4.22c0-.8.06-1.56.12-2.27s.14-1.31.22-1.81.13-.92.15-1.25 0-.6.06-.81a4 4 0 0 1 .1-.71 7.5 7.5 0 0 1 .32-1c.15-.43.38-1 .69-1.84s.68-1.68 1.08-2.65l1.12-2.64.93-2.22c.28-.68.53-1.25.75-1.73s.4-.87.55-1.22.26-.63.34-.86a5.9 5.9 0 0 1 .42-.85c.2-.34.53-.86 1-1.54s1.06-1.53 1.79-2.56 1.54-2.18 2.45-3.45l2.81-3.94q1.44-2 2.65-3.81c.82-1.19 1.52-2.23 2.12-3.11l1.47-2.16c.39-.55.7-1 .94-1.29s.43-.56.6-.75a6.25 6.25 0 0 1 .72-.66c.32-.24.73-.55 1.25-.92s1.15-.84 1.9-1.41 1.56-1.19 2.42-1.88 1.62-1.32 2.31-1.91 1.32-1.1 1.85-1.53 1-.79 1.34-1.05.63-.49.83-.66.43-.36.69-.55.55-.41.9-.65.81-.55 1.37-1 1.22-.89 2-1.45 1.45-1.11 2.12-1.64 1.3-1 1.89-1.44 1.08-.81 1.52-1.11L84.4 14c.3-.2.56-.37.78-.49s.66-.41 1.33-.85l1.9-1.24c.61-.4 1.23-.78 1.87-1.15s1.24-.7 1.78-1l1.42-.74L94.54 8c.29-.15.55-.28.78-.38l.75-.3L97 7l1.32-.44c.52-.17 1.1-.39 1.75-.65s1.28-.52 1.89-.79l1.78-.74c.57-.24 1.1-.45 1.6-.64s1-.33 1.38-.45a11 11 0 0 1 1.22-.29c.4-.08.82-.15 1.25-.2l1.38-.13L112 2.6h19.37c.89 0 1.74.06 2.56.12l2.37.16 2.24.14 2 .12 1.77.09h1.54l1.47.08 1.7.15 2.12.25c.78.1 1.63.22 2.53.36l2.78.47 2.78.5c.91.16 1.79.35 2.65.54s1.7.41 2.53.66 1.67.53 2.52.83l2.6.91 2.73.91c.93.3 1.88.62 2.84 1l2.92 1c1 .35 1.94.72 2.91 1.1s1.95.81 2.95 1.27 2 1 3.06 1.5 2.09 1.13 3.14 1.78 2.08 1.32 3.11 2 2 1.41 3 2.12 1.93 1.45 2.89 2.24 1.91 1.61 2.82 2.43 1.79 1.68 2.65 2.55 1.73 1.78 2.6 2.73 1.72 1.9 2.55 2.85l2.48 2.83L212.6 39c.75.84 1.49 1.72 2.24 2.61s1.5 1.84 2.28 2.83 1.52 1.95 2.23 2.9 1.36 1.85 2 2.73 1.19 1.72 1.74 2.55 1.05 1.65 1.51 2.45.88 1.56 1.25 2.28.71 1.41 1 2.06.59 1.27.85 1.87.51 1.19.75 1.76.49 1.14.74 1.69.5 1.11.76 1.65l.74 1.57c.24.51.48 1 .7 1.43s.44.86.66 1.25.43.76.65 1.13.43.73.64 1.09.43.68.66 1 .44.6.65.84l.61.68c.2.2.38.39.56.55l.53.5c.19.16.39.37.62.6s.48.51.76.83l.9 1c.31.36.62.69.91 1s.57.61.82.86.48.47.69.66a7.59 7.59 0 0 0 .58.49l.71.57c.3.25.58.46.85.65a1.78 1.78 0 0 0 .51.29 1 1 0 0 1 .21.09.55.55 0 0 1 .17.14.76.76 0 0 1 .12.19.74.74 0 0 1 0 .45.67.67 0 0 1-.09.21.85.85 0 0 1-.16.17.63.63 0 0 1-.2.1.54.54 0 0 1-.22 0 .78.78 0 0 1-.22 0 .81.81 0 0 1-.21-.1 1.29 1.29 0 0 1-.16-.17.72.72 0 0 1-.09-.2.61.61 0 0 1 0-.23.54.54 0 0 1 0-.22.56.56 0 0 1 .11-.2.8.8 0 0 1 .17-.15.82.82 0 0 1 .44-.1.79.79 0 0 1 .22.06.59.59 0 0 1 .19.13.62.62 0 0 1 .14.18.48.48 0 0 1 .07.21.6.6 0 0 1 0 .23.94.94 0 0 1-.07.22 1.1 1.1 0 0 1-.14.18.91.91 0 0 1-.19.13.83.83 0 0 1-.21.06h-.12l-.83-.5a5.41 5.41 0 0 1-1.21-.93c-.24-.27-.45-.5-.62-.67l-.55-.59c-.19-.21-.4-.45-.65-.71s-.51-.54-.82-.85l-1-1-1-.93c-.31-.29-.58-.55-.8-.79s-.42-.45-.59-.64l-.49-.59c-.17-.2-.33-.42-.5-.65l-.56-.77c-.2-.28-.42-.59-.64-.92s-.44-.68-.66-1l-.54-1.04-.64-1.17c-.22-.4-.45-.82-.67-1.27s-.46-.93-.71-1.43l-.75-1.59c-.25-.54-.51-1.1-.76-1.66s-.5-1.12-.74-1.69-.49-1.15-.75-1.75-.53-1.21-.83-1.85-.63-1.32-1-2-.77-1.46-1.23-2.25-.95-1.59-1.49-2.41-1.12-1.67-1.73-2.54-1.26-1.77-2-2.71-1.44-1.91-2.21-2.89-1.49-1.96-2.24-2.82-1.48-1.76-2.23-2.61l-2.36-2.69C208.85 35.9 208 35 207.2 34s-1.68-1.89-2.54-2.83-1.72-1.85-2.57-2.71-1.73-1.7-2.63-2.52-1.82-1.62-2.78-2.41-1.91-1.52-2.87-2.22-1.95-1.4-3-2.11-2-1.37-3.07-2-2.06-1.22-3.1-1.76-2-1-3-1.48-2-.87-2.92-1.25-1.93-.75-2.9-1.1l-2.9-1-2.85-1-2.73-.91-2.59-.91c-.83-.29-1.66-.56-2.47-.81s-1.65-.46-2.49-.65-1.73-.37-2.63-.54l-2.78-.5c-.94-.16-1.86-.32-2.76-.46s-1.73-.27-2.51-.37-1.47-.18-2.1-.24-1.18-.11-1.66-.14-1-.07-1.47-.08h-1.55l-1.78-.09-2-.12-2.25-.14-2.36-.15c-.8-.06-1.64-.1-2.53-.13s-1.83 0-2.84 0h-16.43c-.48 0-1 .05-1.43.09l-1.33.14c-.42.05-.82.12-1.19.18a10.27 10.27 0 0 0-1.16.28c-.4.11-.84.27-1.32.45l-1.57.65-1.83.84-1.89.85-1.76.74c-.52.21-1 .38-1.31.5s-.67.23-.93.3l-.73.2a4.76 4.76 0 0 0-.76.25c-.29.12-.64.29-1 .5s-.87.47-1.39.76-1.1.62-1.72 1-1.22.77-1.8 1.18-1.24.85-2 1.31a10.57 10.57 0 0 1-1.39.79 4.12 4.12 0 0 0-.75.36q-.45.27-1.08.72l-1.5 1.11c-.57.43-1.19.92-1.86 1.46l-2.12 1.68c-.74.58-1.39 1.07-1.94 1.49l-1.36 1c-.34.26-.64.47-.9.64l-.73.45a8 8 0 0 0-.85.59c-.34.26-.78.61-1.31 1.05s-1.14.95-1.84 1.54-1.47 1.25-2.32 1.95-1.65 1.34-2.41 1.92l-1.87 1.45-1.18.9-.7.54a4 4 0 0 0-.61.62c-.24.28-.54.7-.93 1.26s-.87 1.27-1.46 2.15l-2.11 3.11q-1.21 1.8-2.64 3.84l-2.79 3.95c-.9 1.27-1.7 2.43-2.41 3.46s-1.29 1.89-1.73 2.56-.75 1.17-.93 1.49l-.45.78a8.51 8.51 0 0 0-.42.82c-.16.34-.34.74-.55 1.21s-.45 1-.72 1.71-.57 1.43-.9 2.24-.68 1.69-1.06 2.65-.73 1.83-1 2.63-.48 1.4-.6 1.82-.24.84-.37 1.25a6.94 6.94 0 0 0-.28 1.11q-.07.49-.18 1.23c-.07.48-.13 1.07-.17 1.75s-.08 1.43-.08 2.23v2.27c0 .72 0 1.35.06 1.9s.07 1 .12 1.42.08.77.12 1.11.07.69.12 1.07.08.72.11 1.07a10.26 10.26 0 0 1 0 1.11c0 .4-.06.72-.1 1s-.09.47-.13.7-.08.53-.12.91l-.17 1.47q-.11.89-.24 2.1c-.09.81-.2 1.68-.32 2.61s-.24 1.78-.35 2.54-.2 1.4-.24 1.89-.1.88-.15 1.17a2.22 2.22 0 0 1-.36.85l-.53.84a11.82 11.82 0 0 0-.58 1.11c-.21.46-.46 1-.74 1.7l-.95 2.22-1 2.35c-.32.75-.58 1.4-.8 2s-.4 1.08-.55 1.52-.28.79-.4 1.06-.22.53-.32.78a6.91 6.91 0 0 0-.25.77 6.84 6.84 0 0 0-.15 1.07c0 .45-.07 1-.08 1.63s0 1.34 0 2.09 0 1.43.05 2 0 1.07 0 1.42v.59a.39.39 0 0 1 0 .14.83.83 0 0 1-.07.13.52.52 0 0 1-.1.11.36.36 0 0 1-.12.08.59.59 0 0 1-.14.06h-.24a.59.59 0 0 1-.14-.06.36.36 0 0 1-.12-.08.52.52 0 0 1-.1-.11.83.83 0 0 1-.07-.13.39.39 0 0 1 0-.14v-.08zM111.63 169.48l.51-.28c.34-.19.62-.35.85-.5l.77-.54a5.91 5.91 0 0 1 .85-.56c.27-.15.6-.33 1-.55l.92-.52.73-.4.68-.35a5.82 5.82 0 0 0 .6-.34 2.91 2.91 0 0 1 .64-.3 6.25 6.25 0 0 1 .76-.23c.27-.06.51-.13.71-.19a2.63 2.63 0 0 0 .63-.31 4.58 4.58 0 0 1 .69-.37l.77-.3.79-.29c.25-.1.47-.17.67-.24a5.92 5.92 0 0 1 .67-.18 3.44 3.44 0 0 1 .83-.08 4.18 4.18 0 0 1 1 .13l1 .24c.32.08.66.17 1 .28l.95.28.72.19c.2.06.57.19 1.1.41a5 5 0 0 1 .89.42 1.07 1.07 0 0 1 .15.22.77.77 0 0 1 .07.26.75.75 0 0 1 0 .26.77.77 0 0 1-.1.25.64.64 0 0 1-.16.2.79.79 0 0 1-.23.14.62.62 0 0 1-.26.06.74.74 0 0 1-.26 0 1.12 1.12 0 0 1-.25-.11.86.86 0 0 1-.19-.19.65.65 0 0 1-.13-.23.87.87 0 0 1 0-.52.9.9 0 0 1 .12-.24.81.81 0 0 1 .19-.18 1.08 1.08 0 0 1 .24-.12 1.24 1.24 0 0 1 .27 0 1 1 0 0 1 .25.06.73.73 0 0 1 .23.13 1.12 1.12 0 0 1 .18.2 1.09 1.09 0 0 1 .1.25 1.23 1.23 0 0 1 0 .27.81.81 0 0 1-.08.25.64.64 0 0 1-.14.22.65.65 0 0 1-.21.16.58.58 0 0 1-.25.09.61.61 0 0 1-.27 0 .73.73 0 0 1-.25-.08l-.12-.06-.26-.19a6 6 0 0 0-.8-.3c-.35-.11-.65-.2-.91-.26a8.62 8.62 0 0 0-.91-.18c-.34-.06-.67-.11-1-.14l-.89-.12-.81-.14a1.71 1.71 0 0 0-.78 0 4.34 4.34 0 0 0-.72.24c-.23.1-.48.21-.73.34a4.59 4.59 0 0 1-.81.29 1.66 1.66 0 0 0-.76.38 1.45 1.45 0 0 1-.67.37l-.76.17c-.28.07-.53.11-.75.15a3 3 0 0 0-.84.29c-.34.16-.63.31-.85.43l-.73.43c-.25.16-.49.3-.72.43a7.94 7.94 0 0 1-.81.38 5.35 5.35 0 0 0-.82.37c-.23.12-.43.24-.61.35l-.62.37c-.23.14-.5.32-.82.54a5.53 5.53 0 0 1-.56.37.49.49 0 0 1-.17.06H112a.57.57 0 0 1-.18 0 .56.56 0 0 1-.16-.07l-.14-.11a.69.69 0 0 1-.11-.13 1.3 1.3 0 0 1-.08-.17.86.86 0 0 1 0-.17.49.49 0 0 1 0-.17.48.48 0 0 1 0-.17.51.51 0 0 1 .09-.16.74.74 0 0 1 .12-.13l.07-.05z"/><path class="cls-2" d="M124 162.55h-4.45a1.66 1.66 0 0 1-.78-.22 1.05 1.05 0 0 1-.43-.53 3.55 3.55 0 0 0-.3-.67 6.73 6.73 0 0 1-.36-.71 3.32 3.32 0 0 1-.22-.73c0-.23-.06-.46-.08-.71s0-.48 0-.72a3 3 0 0 1 0-.68 1.85 1.85 0 0 1 .25-.67 2.55 2.55 0 0 1 .47-.6 2.2 2.2 0 0 1 .66-.42 2.28 2.28 0 0 1 .77-.21 6.64 6.64 0 0 1 .77 0 5.64 5.64 0 0 1 .89 0 1.53 1.53 0 0 1 .88.39 1.9 1.9 0 0 1 .54.74 2.5 2.5 0 0 1 .15.73 3.5 3.5 0 0 1 0 .47.72.72 0 0 1-.07.25.7.7 0 0 1-.11.23.81.81 0 0 1-.18.19.8.8 0 0 1-.21.15 1 1 0 0 1-.24.09 1.09 1.09 0 0 1-.26 0 1.06 1.06 0 0 1-.25 0l-.25-.1-.21-.14a1.63 1.63 0 0 1-.17-.2 1.06 1.06 0 0 1-.18-.48c0-.08.14-.3.44-.65s.37-.46.17-.32-.27.1-.2-.1a4.58 4.58 0 0 1 .33-.67 3.07 3.07 0 0 1 .53-.65 2.41 2.41 0 0 1 .65-.44c.23-.1.48-.23.75-.38a4.4 4.4 0 0 1 .85-.4 3.19 3.19 0 0 1 .88-.2l1-.09c.35 0 .66-.05.93-.05h1.53a3.4 3.4 0 0 1 1 .18 1.15 1.15 0 0 1 .94 1.08v1.42a2.16 2.16 0 0 1-.21.82 2.58 2.58 0 0 1-.47.71l-.51.53-.45.51c-.14.16-.28.35-.43.56a5.62 5.62 0 0 1-.48.64 6 6 0 0 0-.47.63l-.38.58-.37.58a5.86 5.86 0 0 1-.45.6 2.36 2.36 0 0 1-.55.46 3.94 3.94 0 0 1-.77.31 3.46 3.46 0 0 1-.9.17 4.21 4.21 0 0 1-.8 0 1.81 1.81 0 0 1-.71-.27 1.76 1.76 0 0 1-.5-.52 2.42 2.42 0 0 1-.26-.88 8.15 8.15 0 0 1-.1-.92 3.66 3.66 0 0 1 0-.48 1.22 1.22 0 0 1 .06-.26 1 1 0 0 1 .12-.23 1.06 1.06 0 0 1 .17-.2.8.8 0 0 1 .21-.15 1.22 1.22 0 0 1 .24-.1h.26a1.09 1.09 0 0 1 .26 0 1.06 1.06 0 0 1 .25.09.8.8 0 0 1 .21.15.81.81 0 0 1 .18.19 1.26 1.26 0 0 1 .13.23 1.82 1.82 0 0 1 .07.25c0 .09.06.11.17.08a.21.21 0 0 1 .25.09 1 1 0 0 1 .16.28.87.87 0 0 1 .06.32 1.17 1.17 0 0 1 0 .32 1.14 1.14 0 0 1-.15.29 1 1 0 0 1-.23.23.92.92 0 0 1-.28.14.88.88 0 0 1-.32 0 .87.87 0 0 1-.32-.06 1 1 0 0 1-.28-.16 1 1 0 0 1-.22-.24 1.08 1.08 0 0 1-.13-.29 1.22 1.22 0 0 1 0-.33.87.87 0 0 1 .07-.31 1.27 1.27 0 0 1 .18-.27.82.82 0 0 1 .25-.2.94.94 0 0 1 .3-.12 1.22 1.22 0 0 1 .33 0 1.12 1.12 0 0 1 .31.1 1.15 1.15 0 0 1 .26.19 1.24 1.24 0 0 1 .19.26 1 1 0 0 1 .08.63.77.77 0 0 1-.11.3 1 1 0 0 1-.2.26 1 1 0 0 1-.27.17 1.16 1.16 0 0 1-.32.08.87.87 0 0 1-.32 0 1 1 0 0 1-.3-.13l-.13-.08-.57-.69c-.38-.46-.57-.73-.56-.82a1.22 1.22 0 0 1 .06-.26 1 1 0 0 1 .12-.23 1.06 1.06 0 0 1 .17-.2.8.8 0 0 1 .21-.15 1.22 1.22 0 0 1 .24-.1h.26a1.09 1.09 0 0 1 .26 0 1.06 1.06 0 0 1 .25.09.8.8 0 0 1 .21.15.81.81 0 0 1 .18.19 1.26 1.26 0 0 1 .13.23 1.82 1.82 0 0 1 .07.25 1.86 1.86 0 0 1 0 .22v.42c0 .22.11.3.37.24a1 1 0 0 0 .58-.34c.12-.17.25-.37.39-.59l.41-.61c.13-.18.28-.38.45-.59s.32-.4.46-.59.3-.4.47-.64a3.91 3.91 0 0 1 .56-.66 4.17 4.17 0 0 1 .6-.5.65.65 0 0 0 .29-.57v-.7c0-.22.14-.23.39 0s.26.31 0 .31h-.88c-.35 0-.64 0-.85.05l-.94.12-1 .16a1.75 1.75 0 0 0-.68.26 3 3 0 0 1-.72.31.82.82 0 0 0-.57.47c-.11.24-.24.49-.38.74a1.39 1.39 0 0 1-.55.55c-.22.13-.2 0 .08-.33s.42-.48.41-.39a.72.72 0 0 1-.07.25.7.7 0 0 1-.11.23.81.81 0 0 1-.18.19.8.8 0 0 1-.21.15 1 1 0 0 1-.24.09 1.09 1.09 0 0 1-.26 0 1.06 1.06 0 0 1-.25 0l-.25-.1-.21-.14a1.63 1.63 0 0 1-.17-.2 1.06 1.06 0 0 1-.18-.48.22.22 0 0 1 .12-.21q.15-.09-.18-.09h-.66a.52.52 0 0 0-.49.29 1.41 1.41 0 0 0-.18.66v.7a1.79 1.79 0 0 0 .15.69 1.35 1.35 0 0 1 .09.74c0 .25 0 .4.24.46a3.13 3.13 0 0 0 .75.08h3.79l.15.08.12.11a.38.38 0 0 1 .09.13.71.71 0 0 1 .08.32.5.5 0 0 1 0 .17.47.47 0 0 1-.06.15.42.42 0 0 1-.09.14l-.12.11-.15.07a.49.49 0 0 1-.16.05zM149.19 116.66h-.24q-.24 0-.63.12a5.52 5.52 0 0 0-.84.31c-.31.14-.67.32-1.07.54l-1.21.67q-.6.33-1.08.66a9.54 9.54 0 0 0-.83.6l-.59.49a4.91 4.91 0 0 1-.53.42 6.89 6.89 0 0 1-.71.44l-.86.49-1 .56-1.13.62c-.38.22-.73.44-1 .64s-.6.41-.86.6-.5.37-.69.53-.39.31-.59.46a5.66 5.66 0 0 1-.7.46c-.26.15-.54.29-.84.43l-1 .45-1.13.51-1.19.55c-.38.18-.72.36-1 .53a6.62 6.62 0 0 0-.73.48c-.2.15-.41.32-.62.51l-.81.68a9.36 9.36 0 0 1-1 .75l-1.1.81c-.41.31-.82.62-1.24.92l-1.11.83q-.5.39-.81.69c-.21.21-.41.4-.58.59l-.53.55a3.32 3.32 0 0 1-.55.43 8 8 0 0 1-.72.36l-1 .41-1 .42c-.32.15-.61.29-.87.43a6.27 6.27 0 0 0-.7.39c-.2.12-.41.23-.62.34a6.18 6.18 0 0 1-.83.31l-1.1.31c-.39.1-.76.21-1.09.33l-.92.34-.76.27-.68.23a4.51 4.51 0 0 1-.7.16 3.51 3.51 0 0 1-.8 0l-1.06-.06-1.34-.1-1.6-.11c-.6 0-1.2-.06-1.82-.11s-1.17-.09-1.66-.16l-1.29-.18c-.37-.05-.71-.11-1-.17s-.63-.13-.94-.21l-.86-.19-.75-.16a5.51 5.51 0 0 0-.78-.1h-1a11.8 11.8 0 0 1-1.19 0l-1.14-.07h-1.8l-.76.05-.8.08h-1c-.38 0-.9 0-1.38-.06l-1.51-.1-1.52-.08h-2.95a.52.52 0 0 1-.13-.06l-.1-.09a.83.83 0 0 1-.08-.12.35.35 0 0 1 0-.13.5.5 0 0 1 0-.28.29.29 0 0 1 0-.13l.08-.12.1-.09a.52.52 0 0 1 .13-.06H80.74a.48.48 0 0 1 .18.06.58.58 0 0 1 .15.11.91.91 0 0 1 .11.16 1 1 0 0 1 0 .18.55.55 0 0 1 0 .18.64.64 0 0 1-.06.18l-.12.14a1 1 0 0 1-.17.1h-.36l-.17-.08a.86.86 0 0 1-.14-.13.56.56 0 0 1-.09-.17.57.57 0 0 1 0-.18.68.68 0 0 1 0-.19.65.65 0 0 1 .09-.16.86.86 0 0 1 .14-.13l.17-.08h.36a1 1 0 0 1 .17.1l.12.14a.55.55 0 0 1 .06.18.55.55 0 0 1 0 .18 1.21 1.21 0 0 1 0 .18.91.91 0 0 1-.11.16.58.58 0 0 1-.15.11.48.48 0 0 1-.18.06H80.45a.52.52 0 0 1-.13-.06l-.1-.09a.83.83 0 0 1-.08-.12.35.35 0 0 1 0-.13.5.5 0 0 1 0-.28.29.29 0 0 1 0-.13l.08-.12.1-.09a.52.52 0 0 1 .13-.06H83.34l1.52-.08 1.51-.11c.48 0 .94-.05 1.38-.05h1l.8.08.76.05h1.8l1.14-.07h.89l.71.06c.25 0 .55.09.88.17s.61.15.85.22l.74.22.83.25.87.24q.45.12 1 .21c.34.05.75.1 1.23.13s1 0 1.62.05 1.2 0 1.8 0l1.61-.08h1.25a3.7 3.7 0 0 1 .87.06l.71.11a3 3 0 0 0 1.34-.07c.23-.05.47-.12.75-.21a9.66 9.66 0 0 0 .92-.33l1.1-.43c.38-.15.81-.3 1.28-.47a10.12 10.12 0 0 0 1-.42l.75-.37.89-.44 1-.49.9-.43.88-.42a3.66 3.66 0 0 0 .77-.5l.66-.54.84-.71c.32-.29.67-.59 1.06-.91s.77-.65 1.15-1l1-.95a6.88 6.88 0 0 1 .74-.62c.19-.14.38-.26.56-.37l.65-.37.72-.41c.24-.13.51-.29.82-.45l1-.57 1.15-.64 1.1-.61c.34-.18.65-.33.93-.46l.77-.38c.23-.11.45-.23.66-.35l.63-.39.87-.64.9-.6 1-.71 1.1-.69c.35-.24.67-.45 1-.63s.59-.35.85-.49l.66-.36c.19-.1.37-.21.55-.32l.65-.43c.25-.17.54-.37.87-.62s.69-.49 1.07-.74l1.19-.8c.4-.27.8-.51 1.19-.73a3 3 0 0 1 1.15-.39 4 4 0 0 1 .8 0h.46l.13.07a.52.52 0 0 1 .11.1.5.5 0 0 1 .08.12.58.58 0 0 1 .05.14.5.5 0 0 1 0 .28.58.58 0 0 1-.05.14.36.36 0 0 1-.08.12.52.52 0 0 1-.11.1l-.13.07h-.14z"/><path class="cls-2" d="m91.87 138.31.15.31a.63.63 0 0 0 .59.32H94.47c.27 0 .33.1.18.32a.75.75 0 0 0 0 .77c.14.28.06.45-.24.5a4.58 4.58 0 0 1-.9.09c-.29 0-.36.08-.2.23a.7.7 0 0 1 .24.54c0 .22-.08.19-.26-.07a.61.61 0 0 0-.63-.35c-.24 0-.3.2-.19.5s.28.35.48.16.22-.36 0-.54-.17-.21 0-.07 0 0-.61-.33a8.62 8.62 0 0 1-1-.66.87.87 0 0 1-.16-.26.72.72 0 0 1-.06-.29.77.77 0 0 1 0-.3.66.66 0 0 1 .12-.27.73.73 0 0 1 .21-.22.82.82 0 0 1 .26-.14 1 1 0 0 1 .29-.05.94.94 0 0 1 .3.05.84.84 0 0 1 .27.13.7.7 0 0 1 .2.22.68.68 0 0 1 .13.27 1 1 0 0 1 0 .3 1 1 0 0 1-.07.29.68.68 0 0 1-.15.26.79.79 0 0 1-.22.19.77.77 0 0 1-.28.12 1 1 0 0 1-.3 0 1 1 0 0 1-.29-.08.85.85 0 0 1-.25-.17.84.84 0 0 1-.18-.24.94.94 0 0 1-.1-.28.76.76 0 0 1 0-.3.71.71 0 0 1 .09-.28 1.08 1.08 0 0 1 .18-.24.85.85 0 0 1 .25-.17.69.69 0 0 1 .28-.08.74.74 0 0 1 .3 0 .86.86 0 0 1 .28.11l.14.07.66.37c.44.24.76.43 1 .57a1.59 1.59 0 0 1 .52.61 1.27 1.27 0 0 1 .14.82 2.4 2.4 0 0 1-.36.86 2.36 2.36 0 0 1-.56.65 1.87 1.87 0 0 1-.79.27 3.58 3.58 0 0 1-.91 0 1.23 1.23 0 0 1-.67-.27 1.52 1.52 0 0 1-.44-.73 1.9 1.9 0 0 1-.05-1 1.28 1.28 0 0 1 .38-.7 1.76 1.76 0 0 1 .58-.32 2 2 0 0 1 .65-.05 1.61 1.61 0 0 1 .68.25 1.38 1.38 0 0 1 .51.77 1.56 1.56 0 0 1 0 1 1.28 1.28 0 0 1-1.26.92 1 1 0 0 1-.72-.18 1.46 1.46 0 0 1-.38-.75 3.07 3.07 0 0 1-.12-.86v-.78a2.28 2.28 0 0 1 .22-.75 1.29 1.29 0 0 1 .46-.5 1.66 1.66 0 0 1 .78-.22 7.58 7.58 0 0 1 1 0 3.46 3.46 0 0 1 1 .15 1 1 0 0 1 .72.62c.14.32 0 .61-.33.86a1.6 1.6 0 0 1-1 .37h-1a9.81 9.81 0 0 1-1.09-.1 3.06 3.06 0 0 1-.84-.24 1.87 1.87 0 0 1-.54-.44 2.45 2.45 0 0 1-.41-.6c-.1-.22-.17-.35-.19-.41a1.06 1.06 0 0 1 0-.19 1.09 1.09 0 0 1 0-.18.53.53 0 0 1 0-.18.56.56 0 0 1 .09-.17.4.4 0 0 1 .13-.13.53.53 0 0 1 .15-.11.64.64 0 0 1 .18-.06h.18a.58.58 0 0 1 .19 0l.18.07.15.11s.08.09.12.15l.05.07zM140.64 127.44l-.14.41a8.18 8.18 0 0 1-.44 1 6 6 0 0 1-.82 1.2 4.21 4.21 0 0 1-1.29 1 2.17 2.17 0 0 1-1.7.12 2.28 2.28 0 0 1-1.35-1.08 2.84 2.84 0 0 1-.44-1.49 3.17 3.17 0 0 1 .72-1.64 2.86 2.86 0 0 1 1.51-1.14 5.24 5.24 0 0 1 1.92 0 2.59 2.59 0 0 1 2.24 2.49 2.92 2.92 0 0 1-.35 1.32 3.92 3.92 0 0 1-.81 1.06 3.32 3.32 0 0 1-1.31.72 3.06 3.06 0 0 1-1.82 0 2.82 2.82 0 0 1-1.43-.87 2.34 2.34 0 0 1-.49-1.47 2.89 2.89 0 0 1 .33-1.55 2.54 2.54 0 0 1 .92-1 3.25 3.25 0 0 1 1.33-.41 3.55 3.55 0 0 1 1.43.11 3.09 3.09 0 0 1 1.16.62 1.94 1.94 0 0 1 .64 1.18 2.57 2.57 0 0 1-.29 1.62 3 3 0 0 1-1.29 1.33 2.61 2.61 0 0 1-1.84.24 2.89 2.89 0 0 1-1.44-.67 2 2 0 0 1-.37-1.58 2.5 2.5 0 0 1 .55-1.57 2.57 2.57 0 0 1 1.08-.66 2.53 2.53 0 0 1 1.53 0 2.77 2.77 0 0 1 1.33.74 1.83 1.83 0 0 1 .5 1.06 4.76 4.76 0 0 1 0 .84 2.29 2.29 0 0 1-.11.52 2.12 2.12 0 0 1-.23.48 1.86 1.86 0 0 1-.33.41 2.12 2.12 0 0 1-.42.32 2.33 2.33 0 0 1-.49.21 1.88 1.88 0 0 1-.52.08 2.32 2.32 0 0 1-.53 0 2.18 2.18 0 0 1-.51-.17 1.83 1.83 0 0 1-.44-.28 1.9 1.9 0 0 1-.37-.38 2.4 2.4 0 0 1-.27-.46 2.46 2.46 0 0 1-.15-.51 4.56 4.56 0 0 1 .45-1.46 8 8 0 0 1 .69-1.47 2 2 0 0 1 .48-.49 2.31 2.31 0 0 1 .61-.3 2 2 0 0 1 .68-.09 2.09 2.09 0 0 1 .66.13 2 2 0 0 1 .6.34 2.15 2.15 0 0 1 .45.5 2.35 2.35 0 0 1 .27.63 2.21 2.21 0 0 1 .05.68 2 2 0 0 1-.53 1.23 2.22 2.22 0 0 1-.53.43 2 2 0 0 1-.64.23 2.21 2.21 0 0 1-.68 0 2.13 2.13 0 0 1-.65-.2 2 2 0 0 1-.55-.4 1.94 1.94 0 0 1-.4-.55 2.22 2.22 0 0 1-.2-.65 2.28 2.28 0 0 1 0-.69 2.08 2.08 0 0 1 .23-.63 2.22 2.22 0 0 1 .43-.53 2 2 0 0 1 .58-.37 2.17 2.17 0 0 1 1.33-.11 2.22 2.22 0 0 1 .63.27 2.47 2.47 0 0 1 .51.46 2.29 2.29 0 0 1 .33.59 2.15 2.15 0 0 1 .13.67 2.52 2.52 0 0 1-.09.67l-.11.33-.18.16a.56.56 0 0 0-.2.42 2.29 2.29 0 0 1-.11.52 2.12 2.12 0 0 1-.23.48 1.86 1.86 0 0 1-.33.41 2.12 2.12 0 0 1-.42.32 2.33 2.33 0 0 1-.49.21 1.88 1.88 0 0 1-.52.08 2.32 2.32 0 0 1-.53 0 2.18 2.18 0 0 1-.51-.17 1.83 1.83 0 0 1-.44-.28 1.9 1.9 0 0 1-.37-.38 2.4 2.4 0 0 1-.27-.46 2.46 2.46 0 0 1-.15-.51 1.81 1.81 0 0 1 0-.37c0-.06.18.11.5.53a2 2 0 0 0 1.3.77 1 1 0 0 0 1.2-.72 1.52 1.52 0 0 0-.11-1.56 1.36 1.36 0 0 0-1.4-.56c-.62.09-.91.39-.87.89a1 1 0 0 0 .92 1c.58.15.93 0 1.06-.4s-.11-.69-.71-.83-.69-.08-.29.2.34.27-.17-.05-.6-.64-.3-.94a3.09 3.09 0 0 0 .64-.83c.12-.26.22-.44.27-.55a2 2 0 0 1 .22-.29 1.23 1.23 0 0 1 .28-.23 2 2 0 0 1 .32-.17 1.53 1.53 0 0 1 .36-.07 1.45 1.45 0 0 1 .36 0 1.4 1.4 0 0 1 .35.1 2 2 0 0 1 .32.18 1.44 1.44 0 0 1 .46.55 1.06 1.06 0 0 1 .12.34 1.47 1.47 0 0 1 0 .36 2.23 2.23 0 0 1-.05.36l-.05.18zM142.85 148l.31.63a16.32 16.32 0 0 1 .63 1.55 8.32 8.32 0 0 1 .41 1.68c.06.51.1 1 .13 1.44s0 .89.07 1.35 0 .93.07 1.39.05.92.07 1.37a10.33 10.33 0 0 1 0 1.36 3.7 3.7 0 0 1-.3 1.22c-.17.36-.31.63-.42.82a1.79 1.79 0 0 1-.42.49 1.86 1.86 0 0 1-.55.34 2 2 0 0 1-.63.14 1.78 1.78 0 0 1-.65-.07 1.83 1.83 0 0 1-.59-.26 2.24 2.24 0 0 1-.47-.45 2 2 0 0 1-.31-.57 2.32 2.32 0 0 1-.11-.64 2 2 0 0 1 .11-.64 1.94 1.94 0 0 1 .3-.57 2.07 2.07 0 0 1 1.05-.73 2 2 0 0 1 1.28.07 2.12 2.12 0 0 1 .56.33 2 2 0 0 1 .42.49 2.22 2.22 0 0 1 .24.6 2 2 0 0 1 0 .65 1.84 1.84 0 0 1-.17.62 2 2 0 0 1-.36.54 1.85 1.85 0 0 1-.52.4 2.1 2.1 0 0 1-.61.21 2.36 2.36 0 0 1-.65 0 1.9 1.9 0 0 1-.61-.2 2.28 2.28 0 0 1-.52-.39 2 2 0 0 1-.36-.54 1.7 1.7 0 0 1-.18-.62 1.77 1.77 0 0 1 0-.65l.07-.32.2-.48a3.22 3.22 0 0 0 .23-1.15c0-.45 0-.9.07-1.37s0-.92.07-1.37 0-1 .06-1.58a10.3 10.3 0 0 0-.08-1.69 5.52 5.52 0 0 0-.41-1.44c-.2-.42-.31-.7-.35-.81a1.61 1.61 0 0 1-.07-.37 1.53 1.53 0 0 1 0-.37 1.5 1.5 0 0 1 .14-.41 1.29 1.29 0 0 1 .19-.32 1.33 1.33 0 0 1 .26-.27 1.27 1.27 0 0 1 .31-.2 2.17 2.17 0 0 1 .36-.12 2.22 2.22 0 0 1 .37 0 1.61 1.61 0 0 1 .37.07 1.43 1.43 0 0 1 .34.14 1.7 1.7 0 0 1 .3.23 1.28 1.28 0 0 1 .23.29l.1.16zM87.69 159.33v1.44q0 .57.06 1c0 .25 0 .55.1.89s.12.7.2 1.06a9.12 9.12 0 0 0 .31 1 5.45 5.45 0 0 0 .35.82 8.59 8.59 0 0 0 .49.77 4.18 4.18 0 0 0 .56.67l.61.55c.24.22.48.43.7.61s.43.36.62.5a2.92 2.92 0 0 0 .57.37c.2.09.48.2.83.33l.88.35.67.3a6.46 6.46 0 0 0 .78.26 3.33 3.33 0 0 0 .88.12h2.6l.91.05h2.86a1.83 1.83 0 0 0 1-.26c.27-.16.6-.36 1-.58l1-.56.73-.39.83-.42a5.24 5.24 0 0 1 .61-.28 1.24 1.24 0 0 1 .27 0 .67.67 0 0 1 .28.06.72.72 0 0 1 .24.14.91.91 0 0 1 .18.21.8.8 0 0 1 .11.25.88.88 0 0 1 0 .28.84.84 0 0 1-.08.27.7.7 0 0 1-.15.23.72.72 0 0 1-.22.17.82.82 0 0 1-.26.1 1.31 1.31 0 0 1-.28 0 .62.62 0 0 1-.26-.09.73.73 0 0 1-.23-.16 1.19 1.19 0 0 1-.16-.23.77.77 0 0 1-.07-.27.62.62 0 0 1 0-.27.88.88 0 0 1 .1-.27.68.68 0 0 1 .17-.21 1.2 1.2 0 0 1 .24-.15 1.31 1.31 0 0 1 .27-.06.67.67 0 0 1 .28 0 .8.8 0 0 1 .25.11.76.76 0 0 1 .21.19.8.8 0 0 1 .13.24.87.87 0 0 1 .05.28.84.84 0 0 1 0 .27.85.85 0 0 1-.13.25.61.61 0 0 1-.2.19l-.11.08-.45.21c-.29.13-.54.26-.75.37s-.44.26-.69.43-.48.32-.7.45l-.71.46a5.75 5.75 0 0 1-.75.43 1.54 1.54 0 0 1-.74.19h-2.8l-1 .05h-3.46a6 6 0 0 1-.88-.12 7 7 0 0 1-.85-.21l-.65-.25-.67-.25-.89-.34a5.93 5.93 0 0 1-.9-.38 5.74 5.74 0 0 1-.65-.44c-.21-.18-.42-.37-.61-.56l-.64-.65q-.36-.37-.69-.75a5 5 0 0 1-.59-.8l-.39-.72c-.1-.2-.22-.43-.35-.71s-.25-.58-.39-.93-.27-.72-.4-1.12a10.47 10.47 0 0 1-.34-1.18 5.68 5.68 0 0 1-.17-1 6.9 6.9 0 0 1 0-1v-1.52a.83.83 0 0 1 0-.15.64.64 0 0 1 .08-.14l.1-.12.13-.09.15-.06h.31l.15.06.13.09.1.12a.64.64 0 0 1 .08.14.8.8 0 0 1 0 .15v.08zM116.69 171.15l.61.13c.41.1.83.21 1.25.35s.82.26 1.19.4l1 .35.72.27a6 6 0 0 0 .66.19c.23.06.46.12.67.16a4.91 4.91 0 0 0 .67.08 5.45 5.45 0 0 0 .7 0l.69-.05a3.94 3.94 0 0 0 .87-.18l.94-.31.67-.25.7-.28a.74.74 0 0 0 .48-.55 2.16 2.16 0 0 1 .34-.8 4.13 4.13 0 0 1 .8-.84c.35-.27.74-.57 1.18-.89s.84-.62 1.23-.89l1-.73a5.47 5.47 0 0 0 .75-.68 2.62 2.62 0 0 1 .4-.4.35.35 0 0 1 .14-.06H134.81l.13.08a1.14 1.14 0 0 1 .11.11l.08.13a.83.83 0 0 1 0 .15.81.81 0 0 1 0 .16v.15a.61.61 0 0 1-.07.14l-.1.12s-.15.07-.35.11a.8.8 0 0 1-.39 0 1.09 1.09 0 0 1-.17-.13 1.25 1.25 0 0 1-.12-.17 1.17 1.17 0 0 1-.05-.2.74.74 0 0 1 0-.21.73.73 0 0 1 .07-.19 1.07 1.07 0 0 1 .14-.16.52.52 0 0 1 .18-.1.59.59 0 0 1 .4 0 .66.66 0 0 1 .19.09.67.67 0 0 1 .15.14.81.81 0 0 1 .1.18.76.76 0 0 1 0 .21.64.64 0 0 1 0 .2.66.66 0 0 1-.09.19l-.15.14a.66.66 0 0 1-.19.09h-.21a.73.73 0 0 1-.2 0 .81.81 0 0 1-.18-.1 1 1 0 0 1-.13-.16.64.64 0 0 1-.08-.19.69.69 0 0 1 0-.2 1 1 0 0 1 .05-.2.57.57 0 0 1 .12-.18.61.61 0 0 1 .16-.12.8.8 0 0 1 .2-.07h-.09c-.09 0-.18.05-.13 0a.35.35 0 0 1 .14-.06H134.79l.13.08a1.14 1.14 0 0 1 .11.11l.08.13a.83.83 0 0 1 0 .15.81.81 0 0 1 0 .16v.15a.61.61 0 0 1-.07.14l-.1.12-.39.41a6.64 6.64 0 0 1-.72.68c-.27.21-.57.47-.91.79s-.69.66-1.06 1-.66.67-.89.94a6.61 6.61 0 0 0-.53.66 3.81 3.81 0 0 0-.31.56 2.39 2.39 0 0 1-.32.56 2 2 0 0 1-.51.48 3 3 0 0 1-.7.34l-.67.25-.66.27-.77.33a3.15 3.15 0 0 1-.89.24 4.27 4.27 0 0 1-.81.06l-.72-.05c-.26 0-.51 0-.74-.09a5.71 5.71 0 0 1-.71-.19c-.23-.08-.45-.17-.67-.27s-.49-.23-.81-.4-.6-.31-.86-.43-.55-.23-.89-.35a11.19 11.19 0 0 0-1.11-.3 9.7 9.7 0 0 0-1.22-.2l-.7-.08-.15-.07-.13-.1a.69.69 0 0 1-.11-.13.61.61 0 0 1-.07-.14 1.1 1.1 0 0 1 0-.16.49.49 0 0 1 0-.17 1.24 1.24 0 0 1 0-.16l.08-.14.12-.11a.42.42 0 0 1 .14-.09l.15-.06h.25zM149.87 150.33v-.73a16.3 16.3 0 0 1 .15-1.75 14.25 14.25 0 0 1 .39-2q.27-1 .54-1.83c.19-.55.35-1 .5-1.39l.36-1q.15-.4.33-.84c.12-.3.28-.67.49-1.1s.47-.94.78-1.53.64-1.26 1-2l1.16-2.28c.41-.78.79-1.54 1.15-2.26s.68-1.37.95-2l.69-1.57c.19-.45.35-.84.47-1.15a6.41 6.41 0 0 0 .26-.78c.06-.21.12-.47.19-.77s.19-.75.36-1.33.37-1.24.61-2 .47-1.51.72-2.28.47-1.48.68-2.13.39-1.22.53-1.69a9.76 9.76 0 0 0 .28-1.15 5.34 5.34 0 0 0 .07-.89v-1a11.81 11.81 0 0 1 0-1.19c0-.38 0-.84.05-1.37s0-1.11.09-1.74.08-1.24.15-1.84.11-1.14.16-1.61.08-.86.08-1.16v-.87c0-.27-.05-.54-.08-.79s-.06-.5-.08-.75 0-.5 0-.75V98.97a7.09 7.09 0 0 0-.1-.89 1 1 0 0 0-.5-.67c-.29-.19-.44-.31-.44-.37a1.09 1.09 0 0 1 0-.18 1.16 1.16 0 0 1 0-.18.71.71 0 0 1 .08-.15.87.87 0 0 1 .12-.14.58.58 0 0 1 .15-.11.52.52 0 0 1 .16-.06.57.57 0 0 1 .18 0 .55.55 0 0 1 .18 0 .49.49 0 0 1 .17.06l.15.1a.49.49 0 0 1 .12.13.51.51 0 0 1 .09.16s-.09.24-.33.56-.4.46-.48.45a.63.63 0 0 1-.23-.08.62.62 0 0 1-.19-.14.9.9 0 0 1-.14-.2.86.86 0 0 1-.06-.23.65.65 0 0 1 0-.24.85.85 0 0 1 .09-.22.9.9 0 0 1 .15-.19.72.72 0 0 1 .21-.12.59.59 0 0 1 .23 0 .65.65 0 0 1 .24 0 .62.62 0 0 1 .22.1.65.65 0 0 1 .17.16.94.94 0 0 1 .12.22.85.85 0 0 1 0 .23.67.67 0 0 1 0 .24.53.53 0 0 1-.11.21.91.91 0 0 1-.17.17.88.88 0 0 1-.22.1 1 1 0 0 1-.24 0 1 1 0 0 1-.24 0 .82.82 0 0 1-.2-.12 1 1 0 0 1-.16-.19.85.85 0 0 1-.09-.22.65.65 0 0 1 0-.24.6.6 0 0 1 .06-.23.69.69 0 0 1 .13-.2.75.75 0 0 1 .2-.15c.07 0 0 .1-.14.4s-.25.42-.25.36a1.09 1.09 0 0 1 0-.18.85.85 0 0 1 0-.17.6.6 0 0 1 .08-.16.41.41 0 0 1 .12-.14.58.58 0 0 1 .15-.11.52.52 0 0 1 .16-.06.57.57 0 0 1 .18 0 .55.55 0 0 1 .18 0 .49.49 0 0 1 .17.06l.15.1a.49.49 0 0 1 .12.13.51.51 0 0 1 .09.16 2.81 2.81 0 0 0 .43.44 1.36 1.36 0 0 1 .48.8c0 .3.09.62.13 1s.08.69.11 1 0 .64 0 .89a7.83 7.83 0 0 1 0 .81c0 .3 0 .56-.08.77s-.07.47-.12.76-.08.57-.12.88-.06.71-.1 1.18-.07 1-.11 1.59-.06 1.18-.07 1.8 0 1.19 0 1.72v1.38a10.51 10.51 0 0 1 0 1.24 6.73 6.73 0 0 1-.17 1.14c-.08.33-.16.64-.25 1l-.34 1.17c-.13.48-.3 1-.5 1.7s-.41 1.38-.64 2.15-.46 1.52-.67 2.27-.39 1.42-.54 2-.26 1-.35 1.38a5 5 0 0 1-.3.82l-.37.76c-.15.3-.32.67-.51 1.13s-.43 1-.7 1.6-.57 1.27-.93 2-.73 1.48-1.13 2.27-.77 1.55-1.13 2.29-.69 1.4-1 2-.52 1.1-.71 1.54-.35.81-.49 1.1-.28.55-.41.79a6.52 6.52 0 0 0-.4.89c-.14.36-.3.8-.47 1.34s-.34 1.12-.5 1.75a13.66 13.66 0 0 0-.34 1.93c-.06.65-.09 1.21-.09 1.7v.9l-.06.11-.08.09-.1.07h-.47l-.1-.07-.09-.09-.05-.11a.27.27 0 0 1 0-.12v-.06zM132.59 79.27h10.91c1.1 0 2.17 0 3.19.06s2 .1 2.88.2 1.75.22 2.55.35 1.56.28 2.28.43 1.39.31 2 .46 1.22.3 1.78.46l1.57.42 1.29.33 1 .22.87.16a2.89 2.89 0 0 1 .78.23c.21.09.43.2.66.32a3.57 3.57 0 0 1 .57.34 1.16 1.16 0 0 1 .27.24 1.3 1.3 0 0 1 .08.17 1.16 1.16 0 0 1 0 .18 1.15 1.15 0 0 1 0 .19 1.21 1.21 0 0 1-.05.18.86.86 0 0 1-.1.16l-.12.13a.7.7 0 0 1-.16.1.64.64 0 0 1-.18.06h-.37a.53.53 0 0 1-.17-.08l-.15-.11a1.32 1.32 0 0 1-.15-.44 5.29 5.29 0 0 0-.21-.67 5.58 5.58 0 0 0-.31-.59c-.13-.19-.28-.45-.47-.76s-.39-.7-.63-1.15l-.82-1.56c-.31-.59-.64-1.24-1-1.94s-.72-1.4-1.08-2.12-.75-1.43-1.12-2.12l-1.15-2.06c-.38-.67-.76-1.32-1.13-1.95s-.72-1.23-1.08-1.79-.68-1.08-1-1.54l-.82-1.2c-.24-.35-.45-.63-.64-.86s-.41-.44-.64-.66l-.73-.69a6.87 6.87 0 0 1-.69-.76l-.7-.93c-.26-.35-.53-.72-.82-1.09s-.56-.71-.81-1a7.18 7.18 0 0 0-.71-.73 3.92 3.92 0 0 0-.78-.52 5.79 5.79 0 0 0-.9-.4 6.16 6.16 0 0 0-.87-.22c-.27 0-.55-.09-.82-.15a8.18 8.18 0 0 1-1.09-.3c-.45-.14-1-.32-1.57-.53s-1.23-.44-1.84-.74-1.3-.56-1.93-.85l-1.87-.81c-.61-.26-1.24-.53-1.89-.79l-2-.85c-.73-.29-1.45-.61-2.18-1s-1.41-.67-2.08-1-1.25-.58-1.78-.8l-1.33-.58-1-.4c-.27-.11-.54-.22-.82-.35s-.57-.29-.91-.49-.7-.45-1.09-.73l-1.24-.92c-.42-.32-.86-.63-1.31-.94s-.94-.63-1.47-1-1.11-.66-1.74-1-1.27-.65-2-1l-2.12-.91-2.13-.88-2-.85q-1-.42-2-.78c-.64-.25-1.28-.48-1.9-.69l-1.71-.38-1.44-.47c-.42-.14-.78-.24-1.08-.32l-.76-.21a4.52 4.52 0 0 0-.63-.08 5 5 0 0 0-.74 0h-2.7l-1.36-.08h-5.6l-.75.07L85 36l-.76.07h-4.68a1.27 1.27 0 0 1-.69-.14c-.18-.1-.27-.11-.29 0a.9.9 0 0 1-.08.21.75.75 0 0 1-.14.17.76.76 0 0 1-.19.12.79.79 0 0 1-.22.05.55.55 0 0 1-.22 0 1 1 0 0 1-.21-.09.75.75 0 0 1-.16-.15.7.7 0 0 1-.15-.42.83.83 0 0 1 0-.22 1.24 1.24 0 0 1 .1-.2.87.87 0 0 1 .17-.16.61.61 0 0 1 .2-.09.78.78 0 0 1 .22 0 .59.59 0 0 1 .22.05.52.52 0 0 1 .19.11.57.57 0 0 1 .15.16.6.6 0 0 1 .08.21.55.55 0 0 1 0 .22.79.79 0 0 1 0 .22 1.27 1.27 0 0 1-.13.19l-.17.14a.86.86 0 0 1-.21.07h-.23a.83.83 0 0 1-.21-.06.62.62 0 0 1-.18-.14.59.59 0 0 1-.13-.18.83.83 0 0 1-.06-.21v-.11l.94-.52a3.61 3.61 0 0 1 1.37-.53 9.39 9.39 0 0 0 1-.07l1.13-.13c.39 0 .74-.09 1-.11s.59 0 .84 0l.74.05.76.07.83.08.75.07h4.16l1.44-.05 1.36-.08 1.16-.06h1c.28 0 .54.05.8.09a5.46 5.46 0 0 1 .77.2 6.56 6.56 0 0 1 .68.25l.73.3 1.06.37 1.45.47 1.76.59c.63.22 1.27.45 1.92.7s1.3.5 2 .78l2 .84L111 40c.72.29 1.44.6 2.15.91s1.38.63 2 1 1.24.66 1.79 1 1 .65 1.52 1 .91.61 1.34.91l1.22.84c.39.26.75.48 1.07.67l.86.5c.24.15.49.29.74.43s.55.29.92.46l1.34.58c.54.22 1.13.48 1.8.79l2.07.94c.72.33 1.44.63 2.16.92l2.08.81 1.91.75 1.89.75 1.92.74c.64.24 1.24.44 1.82.6s1.09.27 1.53.35.89.15 1.34.25a6.5 6.5 0 0 1 1.22.36 7.44 7.44 0 0 1 1 .54 7 7 0 0 1 .73.54c.18.15.38.34.61.57l.74.79c.28.3.57.63.88 1l.92 1c.3.33.61.7.94 1.11l.73 1 .42.61.42.64c.16.26.36.55.6.89l.85 1.22c.33.47.67 1 1 1.55s.73 1.16 1.11 1.79.77 1.28 1.16 2 .8 1.35 1.2 2 .79 1.39 1.19 2.1.77 1.4 1.15 2.07.74 1.29 1.08 1.84.65 1 .93 1.43.53.76.76 1.06.43.58.61.85a2.25 2.25 0 0 1 .32.91 2 2 0 0 0 .1.58 1.3 1.3 0 0 1 .08.17 1.16 1.16 0 0 1 0 .18 1.15 1.15 0 0 1 0 .19 1.21 1.21 0 0 1-.05.18.86.86 0 0 1-.1.16l-.12.13a.7.7 0 0 1-.16.1.64.64 0 0 1-.18.06h-.37a.53.53 0 0 1-.17-.08l-.15-.11-.2-.19-.45-.42a2.58 2.58 0 0 0-.75-.47l-.8-.33a7.34 7.34 0 0 0-.93-.3l-1.29-.35L158 82l-1.76-.45a53.537 53.537 0 0 0-4.24-.86 40.62 40.62 0 0 0-5.34-.54c-1.02-.04-2.07 0-3.17 0h-11.17l-.08-.08a.24.24 0 0 1-.06-.09.3.3 0 0 1 0-.1.43.43 0 0 1 0-.11.52.52 0 0 1 0-.11.42.42 0 0 1 0-.1.24.24 0 0 1 .06-.09.27.27 0 0 1 .08-.07l.1-.06h.11z"/><path class="cls-2" d="M87.3 161.65h-1.22c-.82 0-1.76-.11-2.83-.24s-2.17-.31-3.3-.55-2.16-.48-3.07-.73l-2.31-.66c-.63-.2-1.14-.37-1.53-.53s-.77-.32-1.13-.5-.76-.41-1.24-.7l-1.58-1c-.58-.37-1.18-.73-1.8-1.1l-1.72-1-1.37-.88q-.57-.37-1-.6c-.29-.15-.55-.29-.81-.41l-.91-.48-1.22-.69c-.46-.27-1-.55-1.49-.84l-1.57-.86-1.43-.88-1.31-.75c-.43-.25-.89-.55-1.4-.89s-1-.7-1.57-1.08L50 145.2c-.48-.35-.94-.7-1.37-1l-1.14-.87c-.33-.25-.63-.46-.92-.65l-.94-.61-1.16-.75c-.43-.28-.88-.59-1.34-.93l-1.31-1c-.41-.31-.77-.59-1.09-.82s-.59-.43-.81-.58l-.69-.48a3 3 0 0 0-.7-.37 10 10 0 0 1-1-.43c-.41-.2-.77-.39-1.08-.58l-1-.62-1.09-.68c-.38-.24-.74-.48-1.1-.73l-1-.67-.83-.56a11.51 11.51 0 0 1-1.25-1.03 4.2 4.2 0 0 1-.52-.57c-.13-.18-.26-.38-.4-.62l-.44-.72a6.51 6.51 0 0 0-.5-.75l-.51-.69a3.59 3.59 0 0 1-.39-.66 2.3 2.3 0 0 1-.19-.75c0-.25 0-.51-.05-.77s0-.59 0-1 0-.73.06-1.08.06-.74.1-1.17.07-.85.11-1.28.06-.86.08-1.28.05-.83.06-1.27 0-1 0-1.54v-12.17c0-.3 0-.63-.09-1a1.07 1.07 0 0 0-.37-.76 4.93 4.93 0 0 0-.64-.41 2.35 2.35 0 0 1-.65-.54 5.86 5.86 0 0 1-.6-.79c-.19-.29-.4-.63-.63-1s-.51-.87-.81-1.39-.6-1.09-.92-1.67-.62-1.14-.91-1.67l-.84-1.5-.75-1.37-.69-1.27c-.22-.4-.44-.79-.66-1.15s-.42-.72-.64-1-.44-.65-.67-1l-.65-.89c-.22-.28-.43-.56-.62-.83s-.38-.54-.55-.8-.32-.48-.44-.69l-.4-.66a1.22 1.22 0 0 1-.13-.84.83.83 0 0 1 .42-.66 2.29 2.29 0 0 1 .79-.21 7.46 7.46 0 0 1 1 0 4.36 4.36 0 0 1 .82.08l.66.11c.22 0 .48.07.79.1l1.13.11c.45 0 1 .07 1.56.1l2 .08h2.1c.73 0 1.45 0 2.18-.07s1.42-.13 2.09-.24 1.26-.22 1.8-.34 1-.22 1.37-.33a4.88 4.88 0 0 0 1-.35 5 5 0 0 0 .85-.51 3.8 3.8 0 0 0 .67-.59.82.82 0 0 0 .2-.63v-.72a2.07 2.07 0 0 1 .1-.79 1 1 0 0 1 .45-.6c.22-.1.25-.08.09.07s-.19.12-.11-.11a2 2 0 0 1 .42-.68 1 1 0 0 1 .89-.32 1.07 1.07 0 0 1 .9.6 2.55 2.55 0 0 1 .32 1.25v.84a1.18 1.18 0 0 1-.1.3A1 1 0 0 1 39 81a1.06 1.06 0 0 1-.26.17.85.85 0 0 1-.31.09 1.08 1.08 0 0 1-.31 0 .79.79 0 0 1-.3-.12 1.16 1.16 0 0 1-.25-.2.92.92 0 0 1-.16-.27.82.82 0 0 1-.07-.31.87.87 0 0 1 0-.32.9.9 0 0 1 .13-.28 1 1 0 0 1 .5-.39.81.81 0 0 1 .31 0 .83.83 0 0 1 .31 0 1.25 1.25 0 0 1 .28.15.8.8 0 0 1 .22.23.78.78 0 0 1 .14.29 1.06 1.06 0 0 1 0 .31 1.08 1.08 0 0 1-.07.31 1.12 1.12 0 0 1-.16.28.91.91 0 0 1-.24.2 1.08 1.08 0 0 1-.29.13 1.15 1.15 0 0 1-.32 0 1.11 1.11 0 0 1-.31-.09.9.9 0 0 1-.26-.17 1 1 0 0 1-.2-.26 1 1 0 0 1-.1-.3v-.15l.24-.54a.87.87 0 0 1 .71-.59q.46 0 .27.27a2.62 2.62 0 0 1-.43.54.85.85 0 0 0-.27.55 7.51 7.51 0 0 1-.17.86 1.65 1.65 0 0 1-.43.81 4.39 4.39 0 0 1-.77.57 6.09 6.09 0 0 1-.82.43c-.22.09-.48.19-.78.29l-1.06.33c-.39.11-.87.23-1.41.36s-1.17.26-1.86.38-1.41.23-2.16.31-1.48.12-2.21.15l-2.11.06-1.91.07-1.59.08h-1.25a6 6 0 0 1-1.16-.12c-.41-.08-.75-.13-1-.16l-.86-.08q-.45 0-.27-.39c.11-.23.21-.23.29 0s.16.46.25.67.2.43.34.69.29.52.47.79.35.57.56.86l.63.92c.22.33.45.66.67 1s.45.69.68 1.06l.69 1.14.72 1.24.8 1.33.92 1.47 1 1.59c.34.55.68 1.06 1 1.54s.65.9.94 1.26a7.9 7.9 0 0 1 .77 1.11 1.92 1.92 0 0 0 .65.75 3.33 3.33 0 0 1 .57.38 3.61 3.61 0 0 1 .51.52 1 1 0 0 1 .25.72 8.34 8.34 0 0 1-.07.94c0 .35-.06.67-.08 1s0 .69 0 1.17v12.54c0 .44 0 .86.06 1.27s.05.84.09 1.28.07.86.11 1.28.07.82.1 1.17 0 .71 0 1.08v.94a4 4 0 0 0 .05.78 2.18 2.18 0 0 0 .31.75l.43.65c.12.19.24.41.38.69s.24.53.33.76.19.46.29.69a4 4 0 0 0 .49.73 5.83 5.83 0 0 0 .65.66 8.14 8.14 0 0 0 .77.57c.29.21.62.41 1 .62s.73.42 1.12.61l1.16.57q.57.26 1 .51l.82.43.69.39c.22.14.45.29.67.46a3.51 3.51 0 0 1 .59.56 6.77 6.77 0 0 0 .52.56q.27.26.75.63l1.09.82 1.29.94c.45.33.9.63 1.33.9l1.18.75c.35.22.66.43 1 .65l.91.7 1.13.86c.43.33.88.67 1.37 1s1 .72 1.52 1.09 1 .73 1.54 1.06.95.62 1.37.86.85.48 1.3.72l1.46.77 1.58.82 1.53.8 1.23.66c.35.19.65.36.91.52s.51.33.78.52.59.4 1 .64l1.36.87c.53.33 1.11.67 1.73 1s1.23.73 1.81 1.09l1.56 1c.46.28.85.51 1.18.68a9.1 9.1 0 0 0 1 .49c.38.15.87.32 1.49.5s1.38.4 2.28.64 1.91.48 3 .71a32.66 32.66 0 0 0 3.23.51c1 .11 2 .18 2.79.19H87.25l.1.06.08.08a.31.31 0 0 1 .07.09v.11a.37.37 0 0 1 0 .11.45.45 0 0 1 0 .11.47.47 0 0 1-.05.1l-.06.09-.09.08H87.09zM94.22 158.44l-.7.38c-.47.26-1.14.67-2 1.26s-1.92 1.3-3.11 2.17S86 164 84.69 165l-3.48 2.68c-1 .82-2.07 1.63-3.06 2.45s-2.13 1.78-3.42 2.91-2.91 2.54-4.83 4.25-4.26 3.88-7 6.51-5.69 5.46-8.78 8.5-6 5.87-8.7 8.5-5.1 5-7.2 7-3.86 3.72-5.29 5.1l-3.39 3.24c-.84.8-1.48 1.4-1.94 1.82s-.85.75-1.18 1-.5.4-.54.42h-.28a.33.33 0 0 1-.12 0l-.1-.09a.35.35 0 0 1-.07-.12.51.51 0 0 1 0-.13.3.3 0 0 1 0-.13l.06-.12.09-.09a.34.34 0 0 1 .12-.06h.13a.28.28 0 0 1 .13 0 .23.23 0 0 1 .12.06.28.28 0 0 1 .09.1.61.61 0 0 1 .05.12.29.29 0 0 1 0 .13.28.28 0 0 1 0 .13.41.41 0 0 1-.07.11.43.43 0 0 1-.1.09h-.38l-.11-.08a.44.44 0 0 1-.08-.11.42.42 0 0 1 0-.12.28.28 0 0 1 0-.13.5.5 0 0 1 .05-.13.39.39 0 0 1 .08-.1v-.05l.45-.32a12.66 12.66 0 0 0 1.13-.95c.45-.41 1.1-1 1.93-1.8l3.39-3.25 5.29-5.09q3.15-3 7.2-7t8.69-8.51q4.65-4.56 8.8-8.52t7-6.52l4.83-4.26 3.44-2.94c1-.82 2-1.64 3.06-2.45l3.49-2.71c1.27-1 2.51-1.92 3.71-2.81s2.24-1.62 3.13-2.22 1.57-1 2-1.3l.74-.42H94.11a.31.31 0 0 1 .1 0l.09.07.06.09a.42.42 0 0 1 0 .1.43.43 0 0 1 0 .11v.11a.42.42 0 0 1 0 .1l-.06.09-.08.08zM99.3 161.89l-.16.31a4.21 4.21 0 0 1-.54.75c-.26.3-.56.62-.91 1L96.61 165c-.37.39-.8.86-1.28 1.4l-1.8 2-2.25 2.46-2.37 2.52c-.78.82-1.53 1.63-2.24 2.42l-2.06 2.3c-.65.73-1.29 1.47-1.92 2.21s-1.25 1.53-1.85 2.35-1.22 1.69-1.85 2.59-1.27 1.85-1.91 2.82-1.26 1.92-1.85 2.84-1.11 1.79-1.6 2.6-.91 1.54-1.3 2.18l-1 1.6a10.87 10.87 0 0 0-.57 1.12c-.13.3-.25.61-.38.91s-.28.64-.48 1l-.71 1.42c-.28.54-.69 1.33-1.24 2.35s-1 1.87-1.35 2.52l-.82 1.57a7.13 7.13 0 0 0-.49 1.17c-.13.38-.21.6-.23.64a.52.52 0 0 1-.1.11.32.32 0 0 1-.12.08h-.15a.39.39 0 0 1-.15 0 .31.31 0 0 1-.13-.06.52.52 0 0 1-.11-.1.33.33 0 0 1-.07-.13.4.4 0 0 1 0-.15.59.59 0 0 1 0-.14.61.61 0 0 1 .07-.14.52.52 0 0 1 .11-.1.38.38 0 0 1 .13-.06.39.39 0 0 1 .15 0h.15l.13.07a.34.34 0 0 1 .09.12.38.38 0 0 1 .06.13.76.76 0 0 1 0 .15.46.46 0 0 1-.12.27.27.27 0 0 1-.12.09.34.34 0 0 1-.14.05h-.15a.37.37 0 0 1-.14 0l-.12-.09a.57.57 0 0 1-.08-.13.33.33 0 0 1 0-.14.38.38 0 0 1 0-.15v-.07l.26-.59c.17-.4.36-.79.56-1.19s.48-.93.81-1.59.79-1.5 1.33-2.52.94-1.8 1.2-2.34.49-1 .67-1.43.35-.75.5-1l.47-.9.63-1.13 1-1.61c.38-.64.81-1.37 1.3-2.18s1-1.69 1.61-2.62 1.2-1.88 1.85-2.86 1.29-1.92 1.92-2.83 1.26-1.79 1.87-2.62 1.24-1.64 1.87-2.39 1.27-1.49 1.93-2.23l2-2.31c.72-.8 1.46-1.61 2.24-2.43l2.34-2.53 2.23-2.47c.7-.78 1.28-1.45 1.76-2l1.26-1.44 1-1.15.81-.92.55-.66c.14-.19.23-.29.25-.32a.34.34 0 0 1 .09-.08.33.33 0 0 1 .1-.06h.44l.09.08a.35.35 0 0 1 .07.09.68.68 0 0 1 .06.22v.11a.36.36 0 0 1 0 .11zM139 148.12l.83-.09c.56-.06 1.19-.1 1.87-.13s1.44 0 2.27 0 1.7 0 2.64.1a20.31 20.31 0 0 1 3 .43 20 20 0 0 1 3.26 1 27.71 27.71 0 0 1 3.35 1.62 36 36 0 0 1 3.22 2.07q1.55 1.13 2.88 2.28a27.53 27.53 0 0 1 2.48 2.47 27.09 27.09 0 0 1 2.15 2.81c.67 1 1.32 2.06 2 3.17s1.25 2.23 1.84 3.36 1.16 2.23 1.68 3.32 1 2.13 1.45 3.13.83 1.88 1.15 2.67.62 1.45.87 2 .53 1.14.84 1.79a7.48 7.48 0 0 1 .61 2 7.2 7.2 0 0 1 .13 1.21 1.29 1.29 0 0 1-.12.38 1.14 1.14 0 0 1-.22.32 1.44 1.44 0 0 1-.32.23 1.29 1.29 0 0 1-.38.12 1.28 1.28 0 0 1-.39 0 1.16 1.16 0 0 1-.37-.13 1.26 1.26 0 0 1-.31-.25 1.46 1.46 0 0 1-.22-.33 1.24 1.24 0 0 1-.09-.38 1 1 0 0 1 0-.39 1.14 1.14 0 0 1 .15-.36 1.08 1.08 0 0 1 .26-.3 1.32 1.32 0 0 1 .34-.2 1.34 1.34 0 0 1 .39-.07 1 1 0 0 1 .39.05 1 1 0 0 1 .35.17 1.28 1.28 0 0 1 .46.63 1.32 1.32 0 0 1 .06.39 1.59 1.59 0 0 1-.07.38 1.1 1.1 0 0 1-.2.35 1.2 1.2 0 0 1-.29.26 1 1 0 0 1-.36.16 1 1 0 0 1-.39 0 1 1 0 0 1-.38-.1 1.08 1.08 0 0 1-.34-.21 1 1 0 0 1-.24-.3 1 1 0 0 1-.14-.37V182.46a9 9 0 0 0-.22-1.7c-.13-.64-.29-1.25-.46-1.81s-.41-1.23-.73-2-.7-1.64-1.14-2.63-.92-2-1.43-3.08-1.07-2.16-1.66-3.27-1.19-2.2-1.81-3.28-1.25-2.09-1.88-3a24.21 24.21 0 0 0-2-2.64 24.74 24.74 0 0 0-2.36-2.33 37.26 37.26 0 0 0-2.76-2.16 33.64 33.64 0 0 0-3.07-1.93 23 23 0 0 0-3.12-1.47 17.37 17.37 0 0 0-3-.88 16.14 16.14 0 0 0-2.8-.29h-2.58c-.82 0-1.56.05-2.22.05H139a.85.85 0 0 1-.23 0l-.22-.1-.18-.14a1.33 1.33 0 0 1-.14-.19 1 1 0 0 1-.09-.21.62.62 0 0 1 0-.23.89.89 0 0 1 0-.23 1.42 1.42 0 0 1 .07-.22 1.32 1.32 0 0 1 .12-.2.85.85 0 0 1 .17-.16.82.82 0 0 1 .2-.12l.22-.07h.12z"/><path class="cls-2" d="m138.7 150.68 1.31.15a15.44 15.44 0 0 1 2.79.58 26.32 26.32 0 0 1 3 1.1 31.76 31.76 0 0 1 3 1.52c1 .57 2 1.19 3.05 1.86s2 1.35 3.08 2.07 2.06 1.46 3.06 2.22 2 1.54 2.89 2.36 1.84 1.66 2.72 2.52 1.72 1.73 2.5 2.6 1.48 1.72 2.11 2.56 1.22 1.67 1.75 2.46 1 1.57 1.46 2.31.85 1.45 1.23 2.12l1 1.86c.31.57.58 1.06.82 1.47s.53 1 .89 1.81a7 7 0 0 1 .55 1.38 1.23 1.23 0 0 1-.21.71 1.11 1.11 0 0 1-.27.26 1 1 0 0 1-.33.17 1 1 0 0 1-.37 0 .94.94 0 0 1-.37-.07 1.06 1.06 0 0 1-.33-.18 1.12 1.12 0 0 1-.25-.28 1 1 0 0 1-.15-.34 1.16 1.16 0 0 1 0-.37 1 1 0 0 1 .08-.37 1.06 1.06 0 0 1 .5-.55.87.87 0 0 1 .35-.13 1.15 1.15 0 0 1 .37 0 1.37 1.37 0 0 1 .36.11 1.34 1.34 0 0 1 .31.22 1.29 1.29 0 0 1 .22.3 1.5 1.5 0 0 1 .11.36 1.21 1.21 0 0 1 0 .38 1.19 1.19 0 0 1-.36.64 1 1 0 0 1-.32.21 1.06 1.06 0 0 1-.36.09 1.14 1.14 0 0 1-.37 0 1.09 1.09 0 0 1-.35-.15 1 1 0 0 1-.28-.25 1.13 1.13 0 0 1-.19-.32l-.06-.18-.34-1-.58-1.63c-.15-.44-.35-.94-.59-1.52s-.54-1.2-.87-1.86-.73-1.36-1.15-2.08-.9-1.47-1.42-2.24-1.08-1.56-1.68-2.37-1.28-1.63-2-2.47-1.57-1.69-2.44-2.53-1.75-1.66-2.65-2.45-1.84-1.56-2.82-2.3-2-1.46-3-2.17-2-1.38-3-2-2-1.23-2.95-1.77a29.18 29.18 0 0 0-2.87-1.41 21.21 21.21 0 0 0-2.74-1 12.81 12.81 0 0 0-2.63-.49c-.87-.06-1.34-.1-1.42-.12l-.21-.07-.18-.12a.75.75 0 0 1-.15-.16l-.11-.19a.79.79 0 0 1-.06-.22.74.74 0 0 1 0-.21.54.54 0 0 1 0-.22.88.88 0 0 1 .09-.2 2.09 2.09 0 0 1 .14-.17l.18-.13.2-.08a.83.83 0 0 1 .22 0zM136.64 142.52h10.06c.9 0 1.8.08 2.68.18a26.53 26.53 0 0 1 2.8.48 31.38 31.38 0 0 1 3 .86 33.55 33.55 0 0 1 3.13 1.21q1.56.7 3.09 1.53c1 .55 2 1.11 3 1.69s1.89 1.16 2.8 1.74 1.8 1.12 2.8 1.79 1.85 1.28 2.77 1.94 1.84 1.36 2.75 2.08 1.8 1.48 2.68 2.28 1.71 1.6 2.48 2.42 1.51 1.62 2.19 2.43 1.32 1.59 1.89 2.37 1.1 1.5 1.55 2.16.85 1.24 1.2 1.72l1.1 1.56a6.12 6.12 0 0 1 .9 1.93 6.4 6.4 0 0 1 .28 1.3 1.29 1.29 0 0 1-.12.38 1.22 1.22 0 0 1-.24.32 1.24 1.24 0 0 1-.32.23 1.66 1.66 0 0 1-.38.11 1.34 1.34 0 0 1-.4 0 1.66 1.66 0 0 1-.37-.14 1.26 1.26 0 0 1-.31-.25 1.08 1.08 0 0 1-.21-.34 1.24 1.24 0 0 1-.09-.38 1.33 1.33 0 0 1 0-.4 1.46 1.46 0 0 1 .16-.36 1.1 1.1 0 0 1 .27-.3 1.14 1.14 0 0 1 .34-.19 1.33 1.33 0 0 1 .79 0 1.16 1.16 0 0 1 .35.18 1.24 1.24 0 0 1 .28.28 1 1 0 0 1 .17.36 1.32 1.32 0 0 1 .06.39 1.27 1.27 0 0 1-.28.74 1.08 1.08 0 0 1-.3.26 1.14 1.14 0 0 1-.36.15 1.07 1.07 0 0 1-.4 0 1.64 1.64 0 0 1-.38-.1 1.46 1.46 0 0 1-.33-.22 1.07 1.07 0 0 1-.25-.31 1.28 1.28 0 0 1-.14-.37v-.2l-.07-.56a6.41 6.41 0 0 0-.45-1.47c-.25-.61-.51-1.17-.77-1.68a20.07 20.07 0 0 0-1-1.74 43.758 43.758 0 0 0-3.3-4.41c-.66-.78-1.37-1.57-2.12-2.36s-1.54-1.57-2.4-2.34-1.73-1.52-2.62-2.22-1.79-1.39-2.7-2.05-1.82-1.29-2.73-1.91-1.83-1.21-2.73-1.78-1.81-1.14-2.75-1.7-1.9-1.12-2.88-1.65-2-1-3-1.46a30.66 30.66 0 0 0-3-1.16q-1.48-.49-2.88-.81c-.92-.2-1.8-.35-2.63-.45s-1.69-.13-2.58-.14h-2.89c-1 0-2 0-3 .06s-1.93.06-2.79.1l-1.38.07h-.22a.62.62 0 0 1-.2-.1.65.65 0 0 1-.16-.13l-.14-.18a1.19 1.19 0 0 1-.08-.2.82.82 0 0 1 0-.44.68.68 0 0 1 .07-.2.76.76 0 0 1 .12-.19.71.71 0 0 1 .15-.15 1 1 0 0 1 .2-.11.73.73 0 0 1 .21-.06h.11z"/><path class="cls-3" d="M74.84 77.84v.37a6.26 6.26 0 0 1-.23 1.38 5.29 5.29 0 0 1-.61 1.64c-.29.42-.61.84-.94 1.24l-.93 1.11a12.32 12.32 0 0 0-.79 1.07c-.26.38-.54.84-.87 1.37l-.84 1.37c-.23.38-.47.79-.74 1.22s-.57 1-.92 1.56A17.18 17.18 0 0 0 67 92a12.48 12.48 0 0 1-1 2 3.85 3.85 0 0 1-1 1.28 2.13 2.13 0 0 1-.61.12 2.09 2.09 0 0 1-.61-.08 1.88 1.88 0 0 1-.55-.27 2 2 0 0 1-.44-.44 1.88 1.88 0 0 1-.27-.55 2.1 2.1 0 0 1-.09-.61 2.13 2.13 0 0 1 .12-.61 1.88 1.88 0 0 1 1.32-1.19 1.8 1.8 0 0 1 .61 0 1.75 1.75 0 0 1 .6.14 1.87 1.87 0 0 1 .52.34 1.53 1.53 0 0 1 .39.48 2.32 2.32 0 0 1 .22.57 2.15 2.15 0 0 1 0 .62 2 2 0 0 1-.18.59 1.77 1.77 0 0 1-.36.5 1.64 1.64 0 0 1-.5.36 2 2 0 0 1-.58.18 1.84 1.84 0 0 1-.62 0 1.7 1.7 0 0 1-.58-.22 2 2 0 0 1-.48-.38 1.91 1.91 0 0 1-.33-.52 1.56 1.56 0 0 1-.15-.6 1.8 1.8 0 0 1 0-.61 2 2 0 0 1 .24-.57 2 2 0 0 1 .41-.46l.24-.19.15-.66a4.23 4.23 0 0 1 .53-1.34l.89-1.51c.36-.6.67-1.12.91-1.56s.48-.87.72-1.28a16.66 16.66 0 0 1 .93-1.43c.39-.55.77-1 1.13-1.51s.68-.84 1-1.16.56-.66.84-1 .59-.75.9-1.18a2.3 2.3 0 0 0 .48-1v-.55a2.22 2.22 0 0 1 .09-.37A1.41 1.41 0 0 1 72 77a1.32 1.32 0 0 1 .25-.28 1.61 1.61 0 0 1 .3-.21 1.51 1.51 0 0 1 .71-.17 1.5 1.5 0 0 1 .37 0 1.48 1.48 0 0 1 .35.13 1.61 1.61 0 0 1 .3.21 1.67 1.67 0 0 1 .25.28 2 2 0 0 1 .17.32 2.22 2.22 0 0 1 .09.37v.18zM87.21 84.7v.64q0 .63.06 1.29a4.55 4.55 0 0 1-.17 1.42 3.28 3.28 0 0 1-.64 1.25 13.35 13.35 0 0 0-.82 1.11 9.57 9.57 0 0 1-1.09 1.33c-.46.47-.94 1-1.43 1.41s-1 1-1.5 1.46-.9.94-1.2 1.29a14.54 14.54 0 0 1-1 1.1c-.39.37-.78.72-1.16 1a6.79 6.79 0 0 0-.8.77l-.42.55a2 2 0 0 1-.46.46 2.16 2.16 0 0 1-.59.29 2.37 2.37 0 0 1-.65.09 2 2 0 0 1-.64-.13 2.27 2.27 0 0 1-.57-.32 2.23 2.23 0 0 1-.43-.49 2 2 0 0 1-.26-.6 2.11 2.11 0 0 1-.05-.66 2 2 0 0 1 .16-.63 2.17 2.17 0 0 1 .36-.55 1.76 1.76 0 0 1 .5-.4 1.94 1.94 0 0 1 1.27-.24 2 2 0 0 1 .63.19 2.45 2.45 0 0 1 .53.38 2.29 2.29 0 0 1 .38.54 1.85 1.85 0 0 1 .18.62 2 2 0 0 1 0 .65 2.2 2.2 0 0 1-.23.62 2 2 0 0 1-.41.5 1.82 1.82 0 0 1-.56.35 2 2 0 0 1-.63.16 2.07 2.07 0 0 1-1.25-.32 1.81 1.81 0 0 1-.48-.43 2 2 0 0 1-.32-.57 2.09 2.09 0 0 1-.13-.65 2 2 0 0 1 .1-.64l.09-.32.57-.77a6.8 6.8 0 0 1 1.33-1.35c.51-.39.93-.72 1.28-1a9.45 9.45 0 0 0 1-.91L79 92l1.23-1.25a12 12 0 0 1 1.14-1 6 6 0 0 0 1.13-1.11 4.06 4.06 0 0 1 1-1 1.25 1.25 0 0 0 .59-1v-2.11a2.11 2.11 0 0 1 .09-.36 1.48 1.48 0 0 1 .17-.33 1.27 1.27 0 0 1 .25-.27 1.29 1.29 0 0 1 .3-.22 1.45 1.45 0 0 1 .35-.12 1.12 1.12 0 0 1 .36 0 1.14 1.14 0 0 1 .37 0 1.38 1.38 0 0 1 .34.12 1.6 1.6 0 0 1 .31.22 1.55 1.55 0 0 1 .24.27 1.48 1.48 0 0 1 .17.33 1.12 1.12 0 0 1 .09.36v.18zM76.19 103.9h.56c.38 0 .82 0 1.33-.07s1-.09 1.55-.16 1.11-.16 1.76-.27l2-.37c.72-.13 1.45-.23 2.2-.31s1.45-.14 2.09-.16 1.21-.06 1.73-.11 1-.1 1.52-.13l1.58-.07h1.61a6 6 0 0 1 1.06 0 2.12 2.12 0 0 1 .6.2 1.92 1.92 0 0 1 .51.39 2.06 2.06 0 0 1 .35.52 2 2 0 0 1 .14 1.25 2 2 0 0 1-.24.59 2 2 0 0 1-1 .81 2.23 2.23 0 0 1-.62.14 2.18 2.18 0 0 1-.63-.07 2 2 0 0 1-.58-.27 1.88 1.88 0 0 1-.46-.43 2 2 0 0 1-.3-.56 2 2 0 0 1-.1-.63 1.89 1.89 0 0 1 .1-.63 2 2 0 0 1 .3-.56 1.92 1.92 0 0 1 .46-.44 1.78 1.78 0 0 1 .58-.26 1.65 1.65 0 0 1 .63-.07 1.91 1.91 0 0 1 .62.13 1.87 1.87 0 0 1 .54.33 1.76 1.76 0 0 1 .41.49 2 2 0 0 1 .24.59 1.91 1.91 0 0 1 0 .63 1.85 1.85 0 0 1-.17.61 1.84 1.84 0 0 1-.86.91 1.85 1.85 0 0 1-.6.2l-.32.05h-3.3c-.58 0-1.18 0-1.82.06s-1.23.06-1.81.07-1.17 0-1.78.08-1.3.14-2.06.27l-2.09.34a17.43 17.43 0 0 1-2 .16h-1.84l-1.33-.15H76a2.37 2.37 0 0 1-.36-.09 2 2 0 0 1-.32-.17 1.61 1.61 0 0 1-.49-.55 2 2 0 0 1-.13-.34 1.61 1.61 0 0 1 0-.37 1.47 1.47 0 0 1 0-.36 2.09 2.09 0 0 1 .13-.35 1.61 1.61 0 0 1 .21-.3l.28-.25.32-.17a1.55 1.55 0 0 1 .36-.08h.18zM74.15 112.92l.45.53c.31.35.65.72 1.05 1.12s.78.76 1.15 1.07a13.48 13.48 0 0 0 1.27.93c.46.31.93.65 1.41 1a15 15 0 0 0 1.46 1c.5.3.94.58 1.33.83s.82.54 1.29.87a7.49 7.49 0 0 1 1.21 1q.49.54 0 .06c-.31-.31 0-.09.85.67s1.38 1.34 1.38 1.56a2.15 2.15 0 0 1 0 .67 2.1 2.1 0 0 1-.26.62 2.13 2.13 0 0 1-.45.5 1.83 1.83 0 0 1-.58.32 1.64 1.64 0 0 1-.65.13 2.16 2.16 0 0 1-.67-.08 2.25 2.25 0 0 1-.6-.3 2.1 2.1 0 0 1-.47-.47 1.69 1.69 0 0 1-.3-.6 2.11 2.11 0 0 1-.1-.66A2.09 2.09 0 0 1 83 123a1.68 1.68 0 0 1 .33-.58 1.76 1.76 0 0 1 .49-.45 2.23 2.23 0 0 1 .61-.27 2.54 2.54 0 0 1 .67-.06 2.07 2.07 0 0 1 .65.16 2.12 2.12 0 0 1 .57.36 2 2 0 0 1 .65 1.15 1.88 1.88 0 0 1 0 .67 2.05 2.05 0 0 1-.19.64 2.3 2.3 0 0 1-.39.55 2.66 2.66 0 0 1-.54.39 2.07 2.07 0 0 1-.64.2 2.15 2.15 0 0 1-.67 0 2.08 2.08 0 0 1-.63-.23 1.92 1.92 0 0 1-.52-.42 1.76 1.76 0 0 1-.37-.56l-.13-.31-.3.1c-.19.06-.46-.06-.79-.34a11.89 11.89 0 0 0-1.11-.84 14.51 14.51 0 0 1-1.25-.9l-1.17-.9c-.36-.29-.72-.59-1.09-.92s-.79-.66-1.28-1a12 12 0 0 1-1.44-1.29c-.48-.49-.9-1-1.27-1.43l-1-1.23c-.3-.36-.48-.59-.55-.69a1.5 1.5 0 0 1-.16-.34 1.58 1.58 0 0 1-.09-.36 1.54 1.54 0 0 1 .11-.74 1.74 1.74 0 0 1 .18-.33 1.66 1.66 0 0 1 .26-.27 1.69 1.69 0 0 1 .31-.21 1.45 1.45 0 0 1 .35-.12 1.61 1.61 0 0 1 .37 0 1.5 1.5 0 0 1 .37.05 1.83 1.83 0 0 1 .35.14 2.44 2.44 0 0 1 .31.22l.14.13z"/><path d="M66 116.22V118.61c0 .68 0 1.27.07 1.88s0 1.26.05 1.94 0 1.23 0 1.68 0 .93.06 1.47 0 1 .06 1.45 0 .86.06 1.3 0 .89 0 1.33v2.01a1.92 1.92 0 0 0 .11.41 2.51 2.51 0 0 1 .1.66 2.08 2.08 0 0 1-.12.66 2 2 0 0 1-.32.59 1.87 1.87 0 0 1-.48.45 2.1 2.1 0 0 1-.61.28 2.15 2.15 0 0 1-.67.06 1.86 1.86 0 0 1-.65-.15 2 2 0 0 1-.56-.35 1.91 1.91 0 0 1-.43-.51 1.74 1.74 0 0 1-.24-.62 1.89 1.89 0 0 1 0-.67 2 2 0 0 1 .18-.64 2.34 2.34 0 0 1 .38-.55 2.1 2.1 0 0 1 .54-.4 2.34 2.34 0 0 1 .63-.21 2.15 2.15 0 0 1 .67 0 2.06 2.06 0 0 1 .63.22 2.09 2.09 0 0 1 .53.41 1.92 1.92 0 0 1 .36.56 1.8 1.8 0 0 1 .18.64 2.52 2.52 0 0 1 0 .67 2.4 2.4 0 0 1-.26.62 2.08 2.08 0 0 1-.44.5 2.05 2.05 0 0 1-.57.34 1.85 1.85 0 0 1-.66.13 2 2 0 0 1-.65-.07 2.28 2.28 0 0 1-.61-.29A2.32 2.32 0 0 1 63 134l-.2-.28-.22-1a7.46 7.46 0 0 1-.21-1.68v-2.64c0-.45 0-.88.06-1.3s0-.91.06-1.45 0-1 .06-1.47 0-1 .05-1.68 0-1.33 0-1.94 0-1.24.07-1.88 0-1.2 0-1.68v-.89a2.22 2.22 0 0 1 .09-.37 2.11 2.11 0 0 1 .18-.33 1.32 1.32 0 0 1 .25-.28 1.13 1.13 0 0 1 .31-.21 1.48 1.48 0 0 1 1.44 0 1.13 1.13 0 0 1 .31.21 1.32 1.32 0 0 1 .25.28 2.11 2.11 0 0 1 .18.33 2.22 2.22 0 0 1 .32.26v.18z" style="fill-opacity:.9;fill:#343a40"/><path class="cls-5" d="m58.42 114.28-.71.9c-.47.59-.88 1.14-1.25 1.63l-.94 1.3c-.26.36-.52.76-.78 1.17l-.83 1.31-.84 1.27a15.58 15.58 0 0 1-1 1.31l-1.17 1.45c-.38.48-.77 1-1.16 1.5s-.65.86-.79 1a1.74 1.74 0 0 1-.47.38 2 2 0 0 1-.57.22 1.79 1.79 0 0 1-.61 0 2 2 0 0 1-.59-.18 1.88 1.88 0 0 1-.5-.35 2.21 2.21 0 0 1-.36-.49 2.05 2.05 0 0 1-.18-.58 2.07 2.07 0 0 1 0-.61 1.92 1.92 0 0 1 .21-.58 2 2 0 0 1 .38-.48 1.94 1.94 0 0 1 .51-.33 1.95 1.95 0 0 1 1.2-.11 1.86 1.86 0 0 1 .56.24 1.81 1.81 0 0 1 .46.41 1.68 1.68 0 0 1 .3.52 1.61 1.61 0 0 1 .12.6 1.8 1.8 0 0 1-.08.61 1.85 1.85 0 0 1-.26.55 2 2 0 0 1-.43.43 2.31 2.31 0 0 1-.54.28 1.8 1.8 0 0 1-.61.08 1.73 1.73 0 0 1-.6-.11 2.1 2.1 0 0 1-.53-.29 2 2 0 0 1-.41-.45 1.75 1.75 0 0 1-.25-.56 1.8 1.8 0 0 1 0-.61 1.75 1.75 0 0 1 .14-.6l.12-.28.33-.42c.21-.28.47-.61.77-1s.65-.79 1.06-1.27.81-.94 1.22-1.38l1.1-1.17c.32-.35.64-.68 1-1s.66-.68 1-1.1l1-1.11c.28-.33.6-.73.95-1.2s.74-1 1.15-1.68.65-1 .73-1.09a1.78 1.78 0 0 1 .26-.22 1.36 1.36 0 0 1 1-.23 1.14 1.14 0 0 1 .33.08 1.87 1.87 0 0 1 .31.17 1.09 1.09 0 0 1 .25.23 1.49 1.49 0 0 1 .2.29 1.75 1.75 0 0 1 .12.32 1.34 1.34 0 0 1 0 .34 1.27 1.27 0 0 1 0 .34 1.62 1.62 0 0 1-.13.33l-.08.15zM52.28 107.1l-.78.13a5.3 5.3 0 0 0-1.39.39c-.4.17-.81.34-1.24.5s-1 .37-1.88.62l-2 .61c-.49.16-.94.32-1.35.49a11.63 11.63 0 0 0-1.31.61l-1.52.78q-.84.43-1.74.84c-.6.27-1.13.54-1.6.79l-1.23.67a3.85 3.85 0 0 1-.82.36 1.76 1.76 0 0 1-.6.07 1.74 1.74 0 0 1-.59-.13 1.84 1.84 0 0 1-.52-.31 1.94 1.94 0 0 1-.39-.46 1.82 1.82 0 0 1-.22-.56 1.74 1.74 0 0 1 0-.6 2.26 2.26 0 0 1 .16-.58 1.77 1.77 0 0 1 .34-.5 1.9 1.9 0 0 1 1-.57 2.08 2.08 0 0 1 .61 0 1.94 1.94 0 0 1 .57.2 1.68 1.68 0 0 1 .48.36 1.85 1.85 0 0 1 .34.5 1.73 1.73 0 0 1 .16.58 1.71 1.71 0 0 1 0 .6 2 2 0 0 1-.22.57 2.44 2.44 0 0 1-.39.46 2.11 2.11 0 0 1-.52.31 2 2 0 0 1-.59.13 1.76 1.76 0 0 1-.6-.07 1.61 1.61 0 0 1-.55-.25 1.68 1.68 0 0 1-.43-.41 1.76 1.76 0 0 1-.29-.54 2 2 0 0 1-.1-.59 2.09 2.09 0 0 1 .1-.6 1.8 1.8 0 0 1 .28-.53 2.19 2.19 0 0 1 .44-.42l.25-.17.78-.42c.52-.27 1.11-.57 1.77-.87s1.19-.54 1.61-.69l1.22-.45c.39-.15.87-.35 1.43-.59s1.08-.46 1.55-.65l1.48-.56c.53-.2 1-.37 1.55-.53a16.43 16.43 0 0 1 1.8-.47c.69-.15 1.35-.31 2-.48s1.21-.29 1.73-.37.85-.12 1-.12a1 1 0 0 1 .35 0 1.17 1.17 0 0 1 .33.11 2.2 2.2 0 0 1 .3.19 2 2 0 0 1 .24.26 1.92 1.92 0 0 1 .18.31 1.31 1.31 0 0 1 .09.34 1.37 1.37 0 0 1 0 .35 1.3 1.3 0 0 1-.08.34 1.6 1.6 0 0 1-.66.81 1.62 1.62 0 0 1-.33.13h-.17z"/><path d="M49.41 99h-.69c-.46 0-.93 0-1.41.06s-1.09 0-1.83 0a13.39 13.39 0 0 1-1.87-.06c-.51-.09-1-.17-1.39-.26s-.86-.19-1.31-.31l-1.35-.37-1.67-.51c-.67-.21-1.32-.43-2-.66s-1.14-.44-1.53-.63-.82-.4-1.29-.65l-1.43-.77c-.48-.27-.92-.51-1.31-.71s-.88-.47-1.48-.77-1-.52-1.13-.63a1.69 1.69 0 0 1-.38-.42 1.81 1.81 0 0 1-.24-.53 2.09 2.09 0 0 1-.05-.56 1.76 1.76 0 0 1 .13-.56 2 2 0 0 1 .3-.48 1.92 1.92 0 0 1 .52-.38 2 2 0 0 1 .53-.2 1.61 1.61 0 0 1 .58 0 1.47 1.47 0 0 1 .54.16 1.86 1.86 0 0 1 .47.32 1.89 1.89 0 0 1 .34.46 1.68 1.68 0 0 1 .17.55 1.75 1.75 0 0 1 0 .56 2 2 0 0 1-.19.54 1.74 1.74 0 0 1-.36.45 1.86 1.86 0 0 1-.47.32 1.78 1.78 0 0 1-.55.14 1.57 1.57 0 0 1-.57 0 1.63 1.63 0 0 1-.53-.21 2 2 0 0 1-.43-.38 1.86 1.86 0 0 1-.33-.51 1.8 1.8 0 0 1-.11-.56 1.6 1.6 0 0 1 .07-.57 1.7 1.7 0 0 1 .24-.51 1.73 1.73 0 0 1 .4-.41 1.83 1.83 0 0 1 1.07-.35 2.2 2.2 0 0 1 .57.1l.27.1.86.48L32 91l1.28.64 1.42.65 1.6.73a18.32 18.32 0 0 0 1.81.71l1.82.63 1.67.59a12.73 12.73 0 0 0 1.88.51 15.34 15.34 0 0 0 2.12.29c.67 0 1.24.07 1.72.11s.95.06 1.41.07a7.29 7.29 0 0 1 .87 0 1.58 1.58 0 0 1 .36.09 1.41 1.41 0 0 1 .32.17 1.61 1.61 0 0 1 .28.24 2.11 2.11 0 0 1 .21.31 1.71 1.71 0 0 1 .13.34 1.47 1.47 0 0 1 0 .36 1.55 1.55 0 0 1 0 .37 2 2 0 0 1-.13.34 1.61 1.61 0 0 1-.21.3 2.26 2.26 0 0 1-.28.25 2 2 0 0 1-.32.17 1.55 1.55 0 0 1-.36.08h-.18z" style="fill-opacity:.6;fill:#343a40"/><path d="m54.61 88.62-.16-1a16 16 0 0 0-.45-1.81c-.17-.58-.36-1.11-.55-1.58a14.21 14.21 0 0 0-.74-1.55c-.3-.56-.59-1.12-.85-1.68s-.52-1.11-.77-1.67-.47-1-.67-1.45a5.73 5.73 0 0 1-.42-1.29 8.22 8.22 0 0 1-.15-1.41 7.22 7.22 0 0 1 0-1 2.1 2.1 0 0 1 .2-.58 1.92 1.92 0 0 1 .37-.48 2 2 0 0 1 .51-.35 1.91 1.91 0 0 1 .59-.16 2.09 2.09 0 0 1 .61 0 1.84 1.84 0 0 1 .56.23 1.81 1.81 0 0 1 .47.4 2 2 0 0 1 .32.52 2 2 0 0 1 .13.6 1.82 1.82 0 0 1-.07.61 1.73 1.73 0 0 1-.26.55 1.79 1.79 0 0 1-.42.45 1.88 1.88 0 0 1-1.74.28 1.91 1.91 0 0 1-.55-.28 2.24 2.24 0 0 1-.42-.45A2 2 0 0 1 50 75a1.82 1.82 0 0 1-.07-.61 2 2 0 0 1 .13-.6 1.74 1.74 0 0 1 .32-.52 2 2 0 0 1 .46-.4 2 2 0 0 1 .57-.23 2.09 2.09 0 0 1 .61 0 1.68 1.68 0 0 1 .59.17 1.75 1.75 0 0 1 .51.34 1.92 1.92 0 0 1 .37.48 2.1 2.1 0 0 1 .2.58l.05.31-.07.71a3.16 3.16 0 0 0 .17 1.39l.44 1.38c.15.48.29 1 .4 1.43a13.71 13.71 0 0 0 .41 1.32c.16.42.31.82.47 1.22s.33.86.52 1.39.41 1.14.63 1.82a19.53 19.53 0 0 1 .54 2c.14.64.21 1 .22 1.14a1.3 1.3 0 0 1 0 .34 1.33 1.33 0 0 1-.1.34 1.75 1.75 0 0 1-.18.29 1.14 1.14 0 0 1-.24.25 1.49 1.49 0 0 1-.3.18 1.42 1.42 0 0 1-.33.11 1.3 1.3 0 0 1-.34 0 1.07 1.07 0 0 1-.35-.06 1.23 1.23 0 0 1-.31-.14 1.46 1.46 0 0 1-.28-.21 2.47 2.47 0 0 1-.21-.27 1.33 1.33 0 0 1-.15-.32v-.17z" style="fill-opacity:.8;fill:#343a40"/></g></g></svg>